<?xml version="1.0" encoding="utf-8"?>
<!-- Generator: Adobe Illustrator 24.1.2, SVG Export Plug-In . SVG Version: 6.00 Build 0)  -->
<svg version="1.1" id="Layer_1" xmlns="http://www.w3.org/2000/svg" xmlns:xlink="http://www.w3.org/1999/xlink" x="0px" y="0px"
	 viewBox="0 0 168 75" style="enable-background:new 0 0 168 75;" xml:space="preserve">
<style type="text/css">
	.st0{fill:none;}
	.st1{fill:#191919;}
	.st2{fill:#00B67A;}
	.st3{fill:#E5E5E5;}
	.st4{fill:#FFFFFF;}
</style>
<rect x="5.5" y="-0.9" class="st0" width="152.3" height="37.3"/>
<polygon class="st1" points="45.4,12.3 60.7,12.3 60.7,15.1 54.7,15.1 54.7,31.4 51.2,31.4 51.2,15.1 45.4,15.1 "/>
<path class="st1" d="M60.2,17.5h2.9v2.6l0,0c0.2-0.3,0.2-0.7,0.5-1c0.2-0.3,0.7-0.7,1-1c0.3-0.3,0.8-0.7,1.1-0.7
	c0.5-0.2,1-0.2,1.5-0.2c0.3,0,0.7,0,0.7,0c0.2,0,0.2,0,0.5,0v2.9c-0.2,0-0.5-0.2-0.7-0.2s-0.5,0-0.7,0c-0.5,0-1,0.2-1.5,0.3
	c-0.5,0.2-0.8,0.5-1.1,1c-0.3,0.3-0.7,1-0.8,1.5s-0.3,1.3-0.3,2.1v6.5H60v-14H60.2z"/>
<path class="st1" d="M82.2,31.4h-2.9v-2l0,0c-0.3,0.7-1,1.3-1.6,1.6c-0.7,0.5-1.5,0.7-2.1,0.7c-1.8,0-3.1-0.5-3.9-1.5
	s-1.1-2.1-1.1-4.1v-8.6h2.9V26c0,1.1,0.2,2.1,0.7,2.6c0.5,0.5,1.1,0.7,2,0.7c0.7,0,1.1-0.2,1.6-0.3s0.8-0.5,1-0.8
	c0.2-0.3,0.5-0.7,0.7-1.1c0.2-0.5,0.2-1,0.2-1.5v-7.8h2.9L82.2,31.4L82.2,31.4z"/>
<path class="st1" d="M87.4,27c0.2,1,0.5,1.5,1,1.8c0.7,0.3,1.3,0.7,2.1,0.7c0.2,0,0.7,0,1-0.2c0.3,0,0.7-0.2,1-0.2
	c0.3-0.2,0.7-0.3,0.8-0.7c0.2-0.3,0.3-0.7,0.2-1c0-0.3-0.2-0.7-0.5-1c-0.2-0.2-0.7-0.5-1-0.7c-0.5-0.2-1-0.2-1.5-0.3
	c-0.7-0.2-1-0.2-1.6-0.3c-0.7-0.2-1.1-0.2-1.6-0.5c-0.7-0.2-1-0.5-1.5-0.7c-0.5-0.3-0.7-0.7-1-1.1c-0.2-0.5-0.3-1-0.3-1.8
	c0-0.7,0.2-1.5,0.7-1.8c0.3-0.5,0.8-1,1.5-1.3c0.7-0.3,1.1-0.7,1.8-0.7c0.7-0.2,1.5-0.2,2-0.2c0.7,0,1.5,0.2,2.1,0.2
	c0.7,0.2,1.3,0.3,1.8,0.7c0.7,0.3,1,0.8,1.3,1.3c0.3,0.7,0.7,1.1,0.7,2h-3.1c-0.2-0.7-0.5-1.3-1-1.5c-0.7-0.2-1.1-0.3-1.8-0.3
	c-0.2,0-0.5,0-0.8,0s-0.7,0.2-0.8,0.2c-0.2,0.2-0.5,0.2-0.7,0.5c-0.3,0.3-0.3,0.7-0.3,1c0,0.3,0.2,0.7,0.3,1c0.2,0.2,0.7,0.5,1,0.7
	c0.5,0.2,1,0.2,1.5,0.3c0.7,0.2,1,0.2,1.6,0.3c0.7,0.2,1,0.2,1.6,0.5c0.7,0.2,1,0.5,1.5,0.7c0.5,0.3,0.8,0.7,1,1.1
	c0.2,0.5,0.3,1,0.3,1.8s-0.2,1.5-0.7,2.1c-0.3,0.7-0.8,1-1.5,1.5c-0.7,0.3-1.3,0.7-2,0.8C91.8,32,91,32,90.3,32
	c-1,0-1.6-0.2-2.4-0.3c-0.7-0.2-1.5-0.5-2-1c-0.7-0.3-1-1-1.3-1.5c-0.3-0.7-0.5-1.3-0.5-2.1C84.2,27,87.4,27,87.4,27z"/>
<path class="st1" d="M97.5,17.5h2.3v-4.1h2.9v4.2h2.9V20h-2.8v7.3c0,0.3,0,0.7,0,0.8s0.2,0.5,0.2,0.7c0.2,0.2,0.2,0.2,0.5,0.3
	c0.2,0.2,0.5,0.2,0.8,0.2c0.2,0,0.5,0,0.7,0c0.2,0,0.5,0,0.7-0.2v2.3c-0.3,0-0.7,0.2-1,0.2c-0.3,0-0.7,0-1,0c-0.8,0-1.5,0-2-0.2
	c-0.5-0.2-1-0.3-1.1-0.7c-0.2-0.3-0.5-0.7-0.7-1.1c-0.2-0.5-0.2-1-0.2-1.5V20h-2.3V17.5z"/>
<rect x="123.7" y="12.3" class="st1" width="2.9" height="2.8"/>
<rect x="123.7" y="17.5" class="st1" width="2.9" height="13.8"/>
<rect x="129.4" y="12.3" class="st1" width="2.9" height="19.1"/>
<path class="st1" d="M119.7,19.3c-0.5-0.7-1.1-1.1-2-1.6c-0.8-0.5-2-0.7-2.9-0.7c-0.8,0-1.6,0.2-2.4,0.5c-0.8,0.3-1.3,1-1.8,1.8
	v-1.8h-2.8v18.9h2.9v-6.8c0.2,0.3,0.5,0.8,0.8,1c0.3,0.3,0.7,0.5,1.1,0.7c0.3,0.2,0.8,0.2,1.3,0.3c0.5,0.2,1,0.2,1.5,0.2
	c1,0,2-0.3,2.6-0.7c0.7-0.5,1.3-1,1.8-1.6c0.3-0.7,0.8-1.3,1-2.3c0.2-0.8,0.3-1.6,0.3-2.6c0-1.1-0.2-2-0.3-2.9
	C120.6,20.8,120.3,20,119.7,19.3z M118.2,26.5c0,0.5-0.3,1-0.7,1.5c-0.2,0.5-0.7,1-1.1,1.1c-0.5,0.3-1.1,0.5-1.8,0.5
	s-1.1-0.2-1.6-0.3c-0.5-0.2-0.8-0.5-1.1-1c-0.3-0.3-0.7-0.8-0.8-1.5c0-0.5-0.2-1.3-0.2-2c0-1.5,0.3-2.6,1-3.6c0.8-1,1.6-1.5,2.9-1.5
	c0.7,0,1.1,0.3,1.6,0.5c0.5,0.2,0.8,0.5,1.1,1c0.3,0.3,0.5,0.8,0.7,1.5c0,0.5,0.2,1.1,0.2,1.8S118.2,25.7,118.2,26.5z"/>
<path class="st1" d="M148.3,21.4c-0.5-0.8-0.8-1.6-1.5-2.3c-0.5-0.7-1.3-1.1-2.1-1.5c-0.8-0.5-1.8-0.7-2.9-0.7
	c-1.1,0-2.1,0.3-2.9,0.7c-0.8,0.3-1.5,0.8-2.1,1.5s-1.1,1.3-1.5,2.3s-0.5,1.8-0.5,2.9s0.2,2,0.5,2.9c0.5,0.8,0.8,1.6,1.5,2.3
	c0.5,0.7,1.3,1,2.1,1.5c0.8,0.5,1.8,0.7,2.9,0.7c1,0,2.1-0.2,2.9-0.7c0.8-0.3,1.5-0.8,2.1-1.5s1.1-1.3,1.5-2.3
	c0.3-0.8,0.5-1.8,0.5-2.9S148.7,22.4,148.3,21.4z M145.6,26.3c0,0.5-0.3,1-0.7,1.5c-0.3,0.5-0.8,1-1.3,1.1c-0.5,0.3-1.1,0.5-1.8,0.5
	s-1.3-0.3-1.8-0.5c-0.7-0.3-1-0.7-1.3-1.1c-0.3-0.5-0.5-0.8-0.7-1.5c0-0.7-0.2-1.1-0.2-1.8s0-1.1,0.2-1.8c0-0.5,0.3-1,0.7-1.5
	c0.3-0.5,0.8-1,1.3-1.1c0.5-0.3,1-0.5,1.8-0.5c0.8,0,1.3,0.3,1.8,0.5c0.7,0.3,1,0.7,1.3,1.1c0.3,0.3,0.5,0.8,0.7,1.5
	c0,0.7,0.2,1.1,0.2,1.8S145.7,25.7,145.6,26.3z"/>
<path class="st1" d="M149.6,17.5h2.3v-4.1h2.9v4.2h2.8V20h-2.8v7.3c0,0.3,0,0.7,0,0.8s0.2,0.5,0.2,0.7c0.2,0.2,0.2,0.2,0.5,0.3
	c0.2,0.2,0.5,0.2,0.8,0.2c0.2,0,0.5,0,0.7,0c0.2,0,0.5,0,0.7-0.2v2.3c-0.3,0-0.7,0.2-1,0.2c-0.3,0-0.7,0-1,0c-0.8,0-1.5-0.2-2-0.2
	c-0.5-0.2-1-0.3-1.1-0.7c-0.2-0.3-0.5-0.7-0.7-1.1c-0.2-0.5-0.2-1-0.2-1.5V20h-2.1V17.5L149.6,17.5z"/>
<rect x="11.1" y="41.3" class="st2" width="27.7" height="27.7"/>
<rect x="41.1" y="41.3" class="st2" width="27.7" height="27.7"/>
<rect x="71.1" y="41.3" class="st2" width="27.7" height="27.7"/>
<rect x="101.3" y="41.3" class="st2" width="27.7" height="27.7"/>
<rect x="131.3" y="41.3" class="st3" width="27.7" height="27.7"/>
<rect x="131.3" y="41.3" class="st2" width="13.9" height="27.7"/>
<g>
	<path class="st4" d="M24.9,60l4.2-1.1l1.8,5.4L24.9,60z M34.7,53h-7.4L25,46l-2.3,7h-7.4l6,4.4l-2.3,7l6-4.4l3.8-2.7L34.7,53
		L34.7,53L34.7,53L34.7,53z"/>
</g>
<g>
	<path class="st2" d="M26.5,25.8l7-1.8l2.9,9.1L26.5,25.8z M42.8,14.1H30.4L26.6,2.4l-4.1,11.7H10.2l10.1,7.2L16.5,33l10.1-7.2
		l6.2-4.4L42.8,14.1L42.8,14.1L42.8,14.1L42.8,14.1z"/>
</g>
<g>
	<path class="st4" d="M55,60l4.2-1.1l1.8,5.4L55,60z M64.7,53h-7.4L55,46l-2.3,7h-7.4l6,4.4l-2.3,7l6-4.4l3.8-2.7L64.7,53L64.7,53
		L64.7,53L64.7,53z"/>
</g>
<g>
	<path class="st4" d="M85,60l4.2-1.1l1.8,5.4L85,60z M94.7,53h-7.4L85,46l-2.3,7h-7.4l6,4.4l-2.3,7l6-4.4l3.8-2.7L94.7,53L94.7,53
		L94.7,53L94.7,53z"/>
</g>
<g>
	<path class="st4" d="M115.2,60l4.2-1.1l1.8,5.4L115.2,60z M124.8,53h-7.4l-2.3-7l-2.3,7h-7.5l6,4.4l-2.3,7l6-4.4l3.8-2.7L124.8,53
		L124.8,53L124.8,53L124.8,53z"/>
</g>
<g>
	<path class="st4" d="M145.2,60l4.2-1.1l1.8,5.4L145.2,60z M154.8,53h-7.4l-2.3-7l-2.3,7h-7.4l6,4.4l-2.3,6.9l6-4.4l3.8-2.7
		L154.8,53L154.8,53L154.8,53L154.8,53z"/>
</g>
</svg>
