<svg id="Layer_1" data-name="Layer 1" xmlns="http://www.w3.org/2000/svg" xmlns:xlink="http://www.w3.org/1999/xlink" viewBox="0 0 76 75"><defs><style>.cls-1{fill:none;}.cls-2,.cls-8{fill:#222b74;}.cls-2{stroke:#222b74;stroke-width:2px;}.cls-2,.cls-4{stroke-miterlimit:10;}.cls-3{fill:#dacf94;}.cls-4,.cls-6{fill:#fff;}.cls-4{stroke:#fff;stroke-width:4px;}.cls-5{fill:#c6a100;}.cls-7{fill:#005ca9;}.cls-9{fill:#35a5de;}.cls-10{opacity:0.35;isolation:isolate;fill:url(#linear-gradient);}.cls-11{clip-path:url(#clip-path);}</style><linearGradient id="linear-gradient" x1="34.22" y1="55.75" x2="34.22" y2="60.99" gradientTransform="matrix(1, 0, 0, -1, 0, 78)" gradientUnits="userSpaceOnUse"><stop offset="0" stop-color="#fff"/><stop offset="0.75" stop-color="#222b74"/></linearGradient><clipPath id="clip-path"><path class="cls-1" d="M136.31,46l5-1.32,2.1,6.55ZM139,37.48,136.31,29l-2.71,8.48h-8.79l7.11,5.24-2.71,8.48,7.1-5.23,4.39-3.24,7.1-5.24Z"/></clipPath></defs><g id="compon_copy" data-name="compon copy"><path class="cls-2" d="M38,3.77a33.9,33.9,0,1,0,33.9,33.9A33.89,33.89,0,0,0,38,3.77Zm0,59a25.11,25.11,0,1,1,25.11-25.1A25.11,25.11,0,0,1,38,62.77Z"/><path class="cls-3" d="M15.76,61.27a2.44,2.44,0,0,1-.63-.89,2.29,2.29,0,0,1-.14-1,2.35,2.35,0,0,1,.32-1,3.74,3.74,0,0,1,.71-.95,4.66,4.66,0,0,1,.91-.78,2.32,2.32,0,0,1,1.93-.29,2.36,2.36,0,0,1,.94.57,2.58,2.58,0,0,1,.63.91,2,2,0,0,1,.12,1,2.89,2.89,0,0,1-.32,1,4.4,4.4,0,0,1-.71,1,4.66,4.66,0,0,1-.91.78,3,3,0,0,1-.95.38,2.2,2.2,0,0,1-1-.07A3.12,3.12,0,0,1,15.76,61.27Zm.48-.5a1.51,1.51,0,0,0,.62.36,1.06,1.06,0,0,0,.66,0,2,2,0,0,0,.7-.32,4.28,4.28,0,0,0,.71-.61,4.13,4.13,0,0,0,.57-.75,2.24,2.24,0,0,0,.27-.71,1.22,1.22,0,0,0,0-.66,1.56,1.56,0,0,0-.39-.59,1.4,1.4,0,0,0-.61-.37,1.06,1.06,0,0,0-.66,0,2.21,2.21,0,0,0-.71.32,3.67,3.67,0,0,0-.71.62,3.38,3.38,0,0,0-.57.75,2.94,2.94,0,0,0-.27.7,1.26,1.26,0,0,0,0,.67A1.36,1.36,0,0,0,16.24,60.77Z"/><path class="cls-3" d="M22.51,59.33,25,61a1.11,1.11,0,0,0-.07.16s-.07.11-.09.16l-.12.16s-.06.09-.11.14L22.8,60.38l-.91,1.41,1.53,1-.07.16s-.07.12-.09.16a.67.67,0,0,1-.11.14,1.74,1.74,0,0,0-.12.14l-1.52-1L20.09,64.6a.81.81,0,0,1-.18-.1.58.58,0,0,1-.18-.11l-.18-.11a.76.76,0,0,1-.16-.14Z"/><path class="cls-3" d="M28.48,63.27l-1.42-.5a1,1,0,0,1,.05-.18,1.21,1.21,0,0,1,.05-.18s0-.12.06-.16a.54.54,0,0,1,.1-.16l3.57,1.28s0,.11,0,.15a.5.5,0,0,1-.05.16s0,.12-.06.19a.54.54,0,0,1-.1.16l-1.41-.51-1.68,4.74a4,4,0,0,1-.39-.11L26.79,68Z"/><path class="cls-3" d="M31.78,63.62H32l.2,0a.78.78,0,0,1,.21,0,.45.45,0,0,0,.18,0l-.39,2.32,2.42.39L35,64.12h.19l.2,0a.54.54,0,0,1,.21,0,.65.65,0,0,0,.2,0l-.91,5.65H34.7l-.21,0a.46.46,0,0,1-.2,0,.81.81,0,0,0-.19,0l.44-2.62-2.42-.39-.43,2.62h-.21l-.2,0a.8.8,0,0,1-.21,0,.65.65,0,0,0-.18,0Z"/><path class="cls-3" d="M37.18,64.3l3.14-.07a1.31,1.31,0,0,1,0,.34v.18a.42.42,0,0,1,0,.19L38,65l0,1.64,1.87,0a.47.47,0,0,1,0,.18.55.55,0,0,0,0,.18v.18a.62.62,0,0,1,0,.19l-1.87,0,0,2,2.39,0a1.88,1.88,0,0,1,0,.34v.18a.55.55,0,0,1,0,.18L37.25,70Z"/><path class="cls-3" d="M45.61,67l-2.71-3a.59.59,0,0,0,.2-.09l.23-.06a.56.56,0,0,1,.23-.05,1,1,0,0,1,.23,0l2,2.39.53-3.1.2-.07.21-.07a.79.79,0,0,1,.23,0,.65.65,0,0,1,.2,0l-.77,4,.54,2-.2.07-.21.07-.2,0a.51.51,0,0,1-.21,0Z"/><path class="cls-3" d="M48,62.41l2.85-1.32a1.36,1.36,0,0,1,.16.32s0,.11.06.16a.37.37,0,0,1,.05.15L49,62.7l.68,1.49,1.69-.8s.07.09.09.13.07.12.09.16,0,.12.07.16a.9.9,0,0,1,0,.16L50,64.8l.82,1.78,2.19-1a1.37,1.37,0,0,1,.16.32.77.77,0,0,0,.07.16.73.73,0,0,1,0,.16l-2.91,1.35Z"/><path class="cls-3" d="M56.86,62.39l-1.77,1.25.45,1.3a.75.75,0,0,1-.16.13c0,.05-.11.09-.16.14a.49.49,0,0,1-.18.11.81.81,0,0,1-.18.1l-1.78-5.77a.61.61,0,0,0,.16-.16c0-.07.14-.09.21-.16l.18-.13c.07-.05.14-.07.2-.12l4.83,3.6a.76.76,0,0,1-.16.14c-.06,0-.11.09-.18.13s-.11.07-.18.12a.76.76,0,0,1-.18.09Zm-2,.54,1.43-1L53.86,60Z"/><path class="cls-3" d="M56,57.44a1.69,1.69,0,0,1,.2-.25c.07-.07.11-.16.18-.23a1.32,1.32,0,0,0,.18-.22l.23-.26a3.49,3.49,0,0,1,.62-.52,2.21,2.21,0,0,1,.7-.32,1.8,1.8,0,0,1,.73,0,1.91,1.91,0,0,1,.75.46,1.85,1.85,0,0,1,.35.48,2.3,2.3,0,0,1,.13.5,1.4,1.4,0,0,1,0,.5,3.1,3.1,0,0,1-.11.46l0,.09,2.89.5-.32.36a1.52,1.52,0,0,1-.32.3L59,58.76l0,0,0-.05c.07-.13.14-.27.21-.43a1.68,1.68,0,0,0,.13-.5,1.65,1.65,0,0,0,0-.5,1.3,1.3,0,0,0-.27-.48,1,1,0,0,0-.84-.36,1.37,1.37,0,0,0-.85.45c-.07.07-.11.14-.16.18s-.11.14-.16.21l3.65,3.58c-.05,0-.07.09-.14.16l-.14.16-.13.13c0,.05-.12.09-.16.14Z"/></g><g id="Layer_1-2" data-name="Layer 1"><path class="cls-4" d="M7.84,40.54a9.77,9.77,0,0,1,1.52-.12,5.31,5.31,0,0,1,.69,0,5.52,5.52,0,0,1,.68.09l1.91,10.11L15,40.54a6.75,6.75,0,0,1,.68-.09,4.72,4.72,0,0,1,.66,0,7.73,7.73,0,0,1,1.21.12L19.93,50.9l1.92-10.36A6.46,6.46,0,0,1,23,40.42c.25,0,.5,0,.73,0l.68.07L21.21,54a9.16,9.16,0,0,1-1.41.11A12.67,12.67,0,0,1,18.25,54L16.11,45,13.78,54c-.29,0-.57,0-.79.07s-.48,0-.76,0A8.36,8.36,0,0,1,11,54Z"/><path class="cls-4" d="M24.44,40.54a9.17,9.17,0,0,1,1.37-.12,9.55,9.55,0,0,1,1.39.12V54a9.46,9.46,0,0,1-1.37.11A9.62,9.62,0,0,1,24.44,54Z"/><path class="cls-4" d="M28.23,40.54a6.15,6.15,0,0,1,1.09-.12,7,7,0,0,1,1.16.12l5.2,8.56V40.54A8.48,8.48,0,0,1,37,40.42a5.82,5.82,0,0,1,1.12.12V54a6.38,6.38,0,0,1-1.09.11A6.94,6.94,0,0,1,35.86,54l-5.24-8.54V54a7.07,7.07,0,0,1-1.21.11A6.31,6.31,0,0,1,28.23,54Z"/><path class="cls-4" d="M39.14,40.54a6.25,6.25,0,0,1,1.09-.12,6.93,6.93,0,0,1,1.16.12l5.2,8.56V40.54a8.61,8.61,0,0,1,1.3-.12,5.8,5.8,0,0,1,1.11.12V54a6.38,6.38,0,0,1-1.09.11A6.94,6.94,0,0,1,46.77,54l-5.24-8.54V54a7.07,7.07,0,0,1-1.21.11A6.31,6.31,0,0,1,39.14,54Z"/><path class="cls-4" d="M50.05,40.54h7.63a6,6,0,0,1,.12,1.14,6.56,6.56,0,0,1-.12,1.18H52.79v2.92h3.89a6.72,6.72,0,0,1,.12,1.16,6.46,6.46,0,0,1-.12,1.18H52.79v3.56h5a6,6,0,0,1,.11,1.14A6.56,6.56,0,0,1,57.82,54H50.07V40.54Z"/><path class="cls-4" d="M58.37,40.54c.54-.07,1.07-.12,1.55-.16a15.25,15.25,0,0,1,1.59-.07,12.46,12.46,0,0,1,2,.18,5.31,5.31,0,0,1,1.8.66,3.76,3.76,0,0,1,1.3,1.3,4,4,0,0,1,.5,2.07A4.81,4.81,0,0,1,67,45.85a3.86,3.86,0,0,1-.48,1,4.36,4.36,0,0,1-1.26,1.23l-.31.2L68.16,54l-.77.06a7.58,7.58,0,0,1-.84,0A11.31,11.31,0,0,1,65.13,54l-3.5-6.25.45-.22.64-.35a4.12,4.12,0,0,0,.73-.52,2.76,2.76,0,0,0,.59-.75,2.17,2.17,0,0,0,.25-1,2.12,2.12,0,0,0-.68-1.73,2.66,2.66,0,0,0-1.73-.55,5.81,5.81,0,0,0-.76.05V53.93l-.68.07c-.23,0-.43,0-.66,0s-.43,0-.68,0l-.73-.07V40.54Z"/><path class="cls-5" d="M7.84,40.54a9.77,9.77,0,0,1,1.52-.12,5.31,5.31,0,0,1,.69,0,5.52,5.52,0,0,1,.68.09l1.91,10.11L15,40.54a6.75,6.75,0,0,1,.68-.09,4.72,4.72,0,0,1,.66,0,7.73,7.73,0,0,1,1.21.12L19.93,50.9l1.92-10.36A6.46,6.46,0,0,1,23,40.42c.25,0,.5,0,.73,0l.68.07L21.21,54a9.16,9.16,0,0,1-1.41.11A12.67,12.67,0,0,1,18.25,54L16.11,45,13.78,54c-.29,0-.57,0-.79.07s-.48,0-.76,0A8.36,8.36,0,0,1,11,54Z"/><path class="cls-5" d="M24.44,40.54a9.17,9.17,0,0,1,1.37-.12,9.55,9.55,0,0,1,1.39.12V54a9.46,9.46,0,0,1-1.37.11A9.62,9.62,0,0,1,24.44,54Z"/><path class="cls-5" d="M28.23,40.54a6.15,6.15,0,0,1,1.09-.12,7,7,0,0,1,1.16.12l5.2,8.56V40.54A8.48,8.48,0,0,1,37,40.42a5.82,5.82,0,0,1,1.12.12V54a6.38,6.38,0,0,1-1.09.11A6.94,6.94,0,0,1,35.86,54l-5.24-8.54V54a7.07,7.07,0,0,1-1.21.11A6.31,6.31,0,0,1,28.23,54Z"/><path class="cls-5" d="M39.14,40.54a6.25,6.25,0,0,1,1.09-.12,6.93,6.93,0,0,1,1.16.12l5.2,8.56V40.54a8.61,8.61,0,0,1,1.3-.12,5.8,5.8,0,0,1,1.11.12V54a6.38,6.38,0,0,1-1.09.11A6.94,6.94,0,0,1,46.77,54l-5.24-8.54V54a7.07,7.07,0,0,1-1.21.11A6.31,6.31,0,0,1,39.14,54Z"/><path class="cls-5" d="M50.05,40.54h7.63a6,6,0,0,1,.12,1.14,6.56,6.56,0,0,1-.12,1.18H52.79v2.92h3.89a6.72,6.72,0,0,1,.12,1.16,6.46,6.46,0,0,1-.12,1.18H52.79v3.56h5a6,6,0,0,1,.11,1.14A6.56,6.56,0,0,1,57.82,54H50.07V40.54Z"/><path class="cls-5" d="M58.37,40.54c.54-.07,1.07-.12,1.55-.16a15.25,15.25,0,0,1,1.59-.07,12.46,12.46,0,0,1,2,.18,5.31,5.31,0,0,1,1.8.66,3.76,3.76,0,0,1,1.3,1.3,4,4,0,0,1,.5,2.07A4.81,4.81,0,0,1,67,45.85a3.86,3.86,0,0,1-.48,1,4.36,4.36,0,0,1-1.26,1.23l-.31.2L68.16,54l-.77.06a7.58,7.58,0,0,1-.84,0A11.31,11.31,0,0,1,65.13,54l-3.5-6.25.45-.22.64-.35a4.12,4.12,0,0,0,.73-.52,2.76,2.76,0,0,0,.59-.75,2.17,2.17,0,0,0,.25-1,2.12,2.12,0,0,0-.68-1.73,2.66,2.66,0,0,0-1.73-.55,5.81,5.81,0,0,0-.76.05V53.93l-.68.07c-.23,0-.43,0-.66,0s-.43,0-.68,0l-.73-.07V40.54Z"/></g><g id="RETAILER_" data-name="RETAILER&lt;"><path class="cls-6" d="M11.6,19.67c.09-.16.18-.32.3-.5s.27-.41.48-.69.36-.43.54-.61a1.74,1.74,0,0,1,.62-.39,1.28,1.28,0,0,1,.64-.09,1.5,1.5,0,0,1,.68.3,1.82,1.82,0,0,1,.34.34,1.36,1.36,0,0,1,.18.39,1,1,0,0,1,0,.38.81.81,0,0,1-.09.34,1.3,1.3,0,0,1,.34-.25,1.83,1.83,0,0,1,.46-.18,1.67,1.67,0,0,1,.54,0,1.54,1.54,0,0,1,.6.3,1.87,1.87,0,0,1,.56.66,1.31,1.31,0,0,1,.1.73,2.61,2.61,0,0,1-.25.78,4.88,4.88,0,0,1-.51.77,4.9,4.9,0,0,1-.45.57c-.16.18-.34.39-.55.59Zm2.78.2a2.2,2.2,0,0,0,.21-.32.51.51,0,0,0,.07-.31.88.88,0,0,0-.07-.32,1,1,0,0,0-.62-.46.84.84,0,0,0-.32,0l-.27.16a1.37,1.37,0,0,0-.23.25,1.78,1.78,0,0,0-.2.32l1.23.94Zm1.8,1.8.18-.18a1.27,1.27,0,0,0,.16-.2,1.53,1.53,0,0,0,.19-.3,2.24,2.24,0,0,0,.11-.34.68.68,0,0,0-.05-.37.87.87,0,0,0-.27-.34,1.09,1.09,0,0,0-.36-.18.47.47,0,0,0-.37,0,1.07,1.07,0,0,0-.32.2,1.69,1.69,0,0,0-.29.35l-.3.36Z"/><path class="cls-6" d="M15.5,15l2.39-2.21a2.83,2.83,0,0,1,.37.32,3.13,3.13,0,0,1,.29.41L17,14.88l.84.92,1.24-1.12a2.31,2.31,0,0,1,.36.34,2,2,0,0,1,.3.41l-1.23,1.12,1,1.11,1.57-1.45a2.76,2.76,0,0,1,.37.31,2.4,2.4,0,0,1,.29.41l-2.43,2.24Z"/><path class="cls-6" d="M19.74,11.28l.57-.43L21,10.4a3.25,3.25,0,0,1,2.35-.57,3,3,0,0,1,1.84,1.5,2.86,2.86,0,0,1,.48,2.3A3.5,3.5,0,0,1,24,15.48c-.23.13-.46.27-.66.36a5.86,5.86,0,0,1-.62.3Zm3.5,3.49.16-.09c.07,0,.14-.07.23-.14a3,3,0,0,0,.55-.43,1,1,0,0,0,.29-.55,1.64,1.64,0,0,0,0-.7,2.78,2.78,0,0,0-.38-.89,3.53,3.53,0,0,0-.62-.75,1.43,1.43,0,0,0-.64-.32,1.26,1.26,0,0,0-.61,0,1.78,1.78,0,0,0-.59.25,2.36,2.36,0,0,1-.23.13,1.41,1.41,0,0,0-.21.16Z"/><path class="cls-6" d="M28.51,6.91l.61-.23c.18-.07.41-.13.66-.2a4.94,4.94,0,0,1,.87-.14,2,2,0,0,1,.82.09,1.73,1.73,0,0,1,.68.39,1.63,1.63,0,0,1,.44.8,2.83,2.83,0,0,1,.06.57,1.29,1.29,0,0,1-.09.45,1.16,1.16,0,0,1-.18.37,2.37,2.37,0,0,1-.2.27l-.12.11,2,2-.32.11c-.11.05-.23.07-.34.12s-.39.09-.59.11L30.65,9.53l.16-.14a1.69,1.69,0,0,0,.23-.2,2.65,2.65,0,0,0,.25-.3,1.46,1.46,0,0,0,.16-.36,1.77,1.77,0,0,0,0-.46A.92.92,0,0,0,31,7.43a1.12,1.12,0,0,0-.77,0,1.17,1.17,0,0,0-.3.11l1.23,4.7c-.09,0-.18.06-.27.09l-.28.09-.27.07a1.55,1.55,0,0,1-.32,0Z"/><path class="cls-6" d="M34.54,5.61l3.24-.23a2.7,2.7,0,0,1,.09.48,2.05,2.05,0,0,1,0,.5l-2.08.14.1,1.23,1.66-.11a4.37,4.37,0,0,1,.09.5,2.1,2.1,0,0,1,0,.5l-1.67.11.12,1.51,2.14-.16a2.7,2.7,0,0,1,.09.48,2.05,2.05,0,0,1,0,.5L35,11.28Z"/><path class="cls-6" d="M41.17,6.52l-1.41-.16a2.09,2.09,0,0,1,0-.5,4,4,0,0,1,.09-.48l4,.44a1.29,1.29,0,0,1,0,.48,2.61,2.61,0,0,1-.09.5l-1.41-.16-.5,4.71h-.3a1.23,1.23,0,0,1-.27,0,1.25,1.25,0,0,1-.3-.05l-.32-.06Z"/><path class="cls-6" d="M46.69,6.48l.32,0,.32.09.29.1a1,1,0,0,1,.32.13l.14,6a3.15,3.15,0,0,1-.64-.14,4.3,4.3,0,0,1-.55-.2V11.33l-1.82-.52-.64,1a3.49,3.49,0,0,1-.54-.12,2.27,2.27,0,0,1-.55-.2Zm.23,3.85,0-2.51L45.62,9.94Z"/><path class="cls-6" d="M51.4,8.14a2.31,2.31,0,0,1,.55.21c.18.09.34.18.52.29l-2.41,5.2a2.1,2.1,0,0,1-.55-.21c-.18-.09-.34-.18-.52-.29Z"/><path class="cls-6" d="M54.55,9.71a2.06,2.06,0,0,1,.5.28,1.93,1.93,0,0,1,.45.36l-2.55,4,1.67,1.07a2.42,2.42,0,0,1-.12.23.78.78,0,0,0-.11.2l-.14.21-.16.2-2.64-1.68Z"/><path class="cls-6" d="M58.81,12.65l2.41,2.19a2.82,2.82,0,0,1-.29.39,2.86,2.86,0,0,1-.37.34L59,14.18l-.84.93,1.23,1.12a3.56,3.56,0,0,1-.3.41,1.45,1.45,0,0,1-.36.34l-1.23-1.12-1,1.12,1.6,1.44a2.18,2.18,0,0,1-.3.38,2.25,2.25,0,0,1-.36.34L55,16.91Z"/><path class="cls-6" d="M62.79,16.55c.16.16.32.32.46.48a3.84,3.84,0,0,1,.43.52,3.56,3.56,0,0,1,.46.73,2.57,2.57,0,0,1,.25.77,1.84,1.84,0,0,1-.09.78,1.73,1.73,0,0,1-.57.7,1.4,1.4,0,0,1-.5.28,2.07,2.07,0,0,1-.46.09,2.82,2.82,0,0,1-.41,0,2.37,2.37,0,0,1-.34-.09l-.16-.05-1.07,2.57a1.89,1.89,0,0,1-.23-.25l-.23-.27c-.11-.16-.22-.32-.32-.5l1.21-2.8.18.09.28.13a.9.9,0,0,0,.36.12,1.41,1.41,0,0,0,.41,0,1,1,0,0,0,.41-.18.86.86,0,0,0,.41-.69,1.18,1.18,0,0,0-.27-.73.89.89,0,0,0-.21-.22L59,21l-.21-.21-.18-.2-.16-.23a1.91,1.91,0,0,1-.16-.27Z"/></g><g id="date"><path class="cls-7" d="M28.61,59.38l0-.07,1.07-1.25a2.21,2.21,0,0,1,.28-.32,1.31,1.31,0,0,0,.2-.3.87.87,0,0,0,.14-.27.66.66,0,0,0,0-.28.56.56,0,0,0-.18-.43.85.85,0,0,0-.52-.16,1.31,1.31,0,0,0-.44.07l-.34.14c0-.07-.07-.14-.09-.23a1.2,1.2,0,0,1-.05-.23c.14,0,.28-.11.44-.16a2.21,2.21,0,0,1,.54-.07,1.9,1.9,0,0,1,.51.07,1.5,1.5,0,0,1,.38.18.69.69,0,0,1,.25.32,1,1,0,0,1,.09.46,1.32,1.32,0,0,1-.2.71,7.43,7.43,0,0,1-.57.77l-.52.59h1.45s0,.09,0,.12v.25a.15.15,0,0,1,0,.11H28.61Z"/><path class="cls-7" d="M32.87,55.8a1.38,1.38,0,0,1,.62.14,1.15,1.15,0,0,1,.43.39,1.36,1.36,0,0,1,.25.56,3.31,3.31,0,0,1,.09.73,2.36,2.36,0,0,1-.09.73,1.76,1.76,0,0,1-.25.57,1.15,1.15,0,0,1-.43.39,1.38,1.38,0,0,1-.62.14,1.22,1.22,0,0,1-.59-.14,1.15,1.15,0,0,1-.43-.39,1.29,1.29,0,0,1-.25-.57,3.39,3.39,0,0,1-.09-.73,2.44,2.44,0,0,1,.09-.73,1.7,1.7,0,0,1,.25-.56,1.15,1.15,0,0,1,.43-.39A1.22,1.22,0,0,1,32.87,55.8Zm0,.48a.66.66,0,0,0-.59.34,2,2,0,0,0-.2,1,1.89,1.89,0,0,0,.2,1,.72.72,0,0,0,.59.34.69.69,0,0,0,.6-.34,2,2,0,0,0,.2-1,2,2,0,0,0-.2-1A.67.67,0,0,0,32.87,56.28Z"/><path class="cls-7" d="M35,56.92a1.4,1.4,0,0,1-.12-.18c0-.07-.07-.14-.09-.23l1.46-.69h.09V58.9h.78c0,.09,0,.16,0,.23a.9.9,0,0,1,0,.23H34.92a.9.9,0,0,1,0-.23.82.82,0,0,1,0-.23h.82V56.55Z"/><path class="cls-7" d="M38.32,59.79a1.43,1.43,0,0,1-.27-.09,1.54,1.54,0,0,1-.23-.14l1.39-3.21H37.36c0-.05,0-.07,0-.12V56a.3.3,0,0,1,0-.13H40l0,0Z"/><path class="cls-7" d="M41.58,57.6s0,.07,0,.12V58s0,.09,0,.11H40.16s0-.07,0-.11v-.27s0-.1,0-.12Z"/><path class="cls-7" d="M42.12,56.92a1.25,1.25,0,0,1-.11-.18c0-.07-.07-.14-.09-.23l1.46-.69h.09V58.9h.77c0,.09,0,.16,0,.23a.61.61,0,0,1,0,.23H42.1a.9.9,0,0,1,0-.23.82.82,0,0,1,0-.23h.82V56.55Z"/><path class="cls-7" d="M46.59,57.28l.3.14a2.76,2.76,0,0,1,.27.23,1.08,1.08,0,0,1,.18.29,1,1,0,0,1,.07.41,1.23,1.23,0,0,1-.11.5,1.27,1.27,0,0,1-.3.35,1.63,1.63,0,0,1-.43.18,1.86,1.86,0,0,1-1,0,1.63,1.63,0,0,1-.43-.18.91.91,0,0,1-.3-.35,1.16,1.16,0,0,1-.11-.5,1,1,0,0,1,.07-.41,1.08,1.08,0,0,1,.18-.29,1.37,1.37,0,0,1,.25-.23,1.12,1.12,0,0,1,.28-.16,1.77,1.77,0,0,1-.46-.34.91.91,0,0,1-.18-.55A.75.75,0,0,1,45,56a1.13,1.13,0,0,1,.25-.29,1,1,0,0,1,.36-.18,1.55,1.55,0,0,1,.92,0,1.21,1.21,0,0,1,.36.18,1.13,1.13,0,0,1,.25.29.75.75,0,0,1,.09.39.86.86,0,0,1-.18.55A.67.67,0,0,1,46.59,57.28Zm-.53.23a1.25,1.25,0,0,0-.29.11,1.18,1.18,0,0,0-.25.19.6.6,0,0,0-.16.22.61.61,0,0,0-.07.28.6.6,0,0,0,.21.48.83.83,0,0,0,.56.18.81.81,0,0,0,.57-.18.6.6,0,0,0,.21-.48.53.53,0,0,0-.07-.28.6.6,0,0,0-.16-.22,2.71,2.71,0,0,0-.25-.19A1.72,1.72,0,0,0,46.06,57.51Zm0-.43a2.67,2.67,0,0,1,.26-.09c.09,0,.13-.1.2-.14a.4.4,0,0,0,.14-.18.51.51,0,0,0,0-.25.46.46,0,0,0-.16-.39.74.74,0,0,0-.48-.14.73.73,0,0,0-.47.14.46.46,0,0,0-.16.39.93.93,0,0,0,0,.25,1.41,1.41,0,0,0,.14.18l.2.14A1.45,1.45,0,0,0,46.06,57.08Z"/></g><g id="LOGO"><path class="cls-5" d="M57.84,24.27A98.48,98.48,0,0,0,48,29c-8,4.47-22.6,9.19-31.51,5.61l-1.3,2.6c17.37,4,32.11-6.88,32.11-6.88a86.89,86.89,0,0,1,10.57-5.65Z"/><path class="cls-8" d="M22.19,24.68l.48,0h.93a2.27,2.27,0,0,1,.41,0L25.49,35.5a8.59,8.59,0,0,1-.86,0,6,6,0,0,1-.73,0L23.6,33H20l-1.1,2.55a6.56,6.56,0,0,1-.82,0h-.41a1.36,1.36,0,0,1-.36,0Zm1.25,7-.61-5.22-2.28,5.22Z"/><path class="cls-8" d="M25.36,27.78a2.7,2.7,0,0,1,.41-.05l.41,0a3.61,3.61,0,0,1,.77.07l.59,6,2.42-6a2,2,0,0,1,.36-.05l.37,0a2.42,2.42,0,0,1,.38,0,2.35,2.35,0,0,1,.37.05l.73,6,1.89-4.56a5.65,5.65,0,0,0,.25-.77,3.77,3.77,0,0,0,.07-.52v-.14a2.23,2.23,0,0,1,.36-.05l.39,0a3.92,3.92,0,0,1,.82.07v.07a2,2,0,0,1-.14.7,9.68,9.68,0,0,1-.41.94l-2.8,6a2.85,2.85,0,0,1-.41,0l-.43,0a2.68,2.68,0,0,1-.39,0,1.88,1.88,0,0,1-.36,0L30.25,30,28,35.53a3,3,0,0,1-.41,0l-.41,0a2.68,2.68,0,0,1-.39,0,2.1,2.1,0,0,1-.37,0Z"/><path class="cls-8" d="M41.71,32.2c-.11.59-.2,1.12-.27,1.55a6.94,6.94,0,0,0-.09,1.14v.32a1.47,1.47,0,0,0,0,.27,1.84,1.84,0,0,1-.36.05l-.36,0a2.3,2.3,0,0,1-.35,0,2.15,2.15,0,0,1-.34-.05,2,2,0,0,1,0-.34c0-.12,0-.25,0-.44s0-.25.05-.45a2.24,2.24,0,0,1,.09-.5,3.53,3.53,0,0,1-.43.66A3.58,3.58,0,0,1,39,35a2.82,2.82,0,0,1-.79.46,2.77,2.77,0,0,1-1,.18A1.84,1.84,0,0,1,35.74,35a2.79,2.79,0,0,1-.5-1.78,6.34,6.34,0,0,1,.35-2.07,5.49,5.49,0,0,1,1-1.8,4.75,4.75,0,0,1,1.62-1.27,4.94,4.94,0,0,1,2.23-.48,5.83,5.83,0,0,1,1.1.09,4.69,4.69,0,0,1,1,.23Zm-.86-3.28-.39-.07-.43,0a2.63,2.63,0,0,0-1.35.34,3.73,3.73,0,0,0-1,.93A4.31,4.31,0,0,0,37,31.4a4.72,4.72,0,0,0-.23,1.51A2.12,2.12,0,0,0,37,34a.85.85,0,0,0,.77.41,1.61,1.61,0,0,0,.92-.29,3.26,3.26,0,0,0,.79-.85A4.86,4.86,0,0,0,40.12,32a8,8,0,0,0,.41-1.53Z"/><path class="cls-8" d="M42.47,35.48c.11-.64.22-1.3.36-2s.25-1.38.39-2,.2-1.26.29-1.8a8.16,8.16,0,0,0,.12-1.3V28a2,2,0,0,0-.05-.27,3.69,3.69,0,0,1,.37-.05h.7a1.16,1.16,0,0,1,.34.05A.76.76,0,0,1,45,28c0,.09,0,.23,0,.41s0,.46,0,.68a4.06,4.06,0,0,1,.43-.5,3.72,3.72,0,0,1,.52-.43,2.74,2.74,0,0,1,.64-.32,2.62,2.62,0,0,1,.78-.11,1.32,1.32,0,0,1,.27,0,.68.68,0,0,1,.23,0,4.48,4.48,0,0,1-.07.69,1.84,1.84,0,0,1-.23.66l-.18,0c-.09,0-.16,0-.25,0a2.09,2.09,0,0,0-1.64.73,4.73,4.73,0,0,0-.89,2.24L44,35.55c-.2,0-.41,0-.61,0H43Z"/><path class="cls-8" d="M53.22,32.2A15.27,15.27,0,0,0,53,33.75a6.94,6.94,0,0,0-.09,1.14v.32a1.32,1.32,0,0,0,0,.27,2,2,0,0,1-.36.05l-.37,0a1.94,1.94,0,0,1-.34,0,1.86,1.86,0,0,1-.34-.05.76.76,0,0,1-.05-.27,2.12,2.12,0,0,1,0-.39c0-.12,0-.3,0-.5a4.72,4.72,0,0,1,.12-.59,5.1,5.1,0,0,1-.46.68,3.87,3.87,0,0,1-.64.64,3.43,3.43,0,0,1-.79.45,2.56,2.56,0,0,1-1,.18,1.78,1.78,0,0,1-1.5-.66,2.78,2.78,0,0,1-.5-1.77,6.34,6.34,0,0,1,.34-2.08,5.51,5.51,0,0,1,1-1.8,5,5,0,0,1,1.61-1.27,5,5,0,0,1,2.24-.48,1.94,1.94,0,0,1,.34,0c.11,0,.23,0,.3,0,.11-.6.2-1.1.25-1.51a8,8,0,0,0,.09-1.11v-.3a.77.77,0,0,0,0-.25,2.3,2.3,0,0,1,.41-.05l.41,0H54a1.27,1.27,0,0,1,.34.05c0,.2,0,.38,0,.54a6.62,6.62,0,0,1-.07.89c0,.37-.09.71-.15,1.05Zm-.87-3.28L52,28.85l-.44,0a2.59,2.59,0,0,0-1.34.34,3.77,3.77,0,0,0-1,.93,4.55,4.55,0,0,0-.66,1.3,4.72,4.72,0,0,0-.23,1.51A2.11,2.11,0,0,0,48.53,34a.83.83,0,0,0,.77.41,1.56,1.56,0,0,0,.91-.29,3.13,3.13,0,0,0,.8-.85A6.09,6.09,0,0,0,51.65,32a8,8,0,0,0,.41-1.53Z"/><path class="cls-8" d="M55.91,31.86a5.24,5.24,0,0,1-.48-.23,2.48,2.48,0,0,1-.46-.34,2.45,2.45,0,0,1-.36-.53,1.93,1.93,0,0,1-.14-.77,2,2,0,0,1,.23-1,2.23,2.23,0,0,1,.64-.76,3,3,0,0,1,1-.47,4.12,4.12,0,0,1,1.25-.16,5.08,5.08,0,0,1,1.18.13,3.75,3.75,0,0,1,.87.3,4.52,4.52,0,0,1-.43,1.14,4,4,0,0,0-.71-.25,3.22,3.22,0,0,0-1-.14,2.15,2.15,0,0,0-1.07.23.84.84,0,0,0-.43.77.77.77,0,0,0,.21.57,1.86,1.86,0,0,0,.72.44l.35.16.59.29a2.31,2.31,0,0,1,.55.37,2,2,0,0,1,.41.52,1.6,1.6,0,0,1,.16.75,2.6,2.6,0,0,1-.28,1.23A2.51,2.51,0,0,1,58,35a3.3,3.3,0,0,1-1.09.5,5.26,5.26,0,0,1-1.35.16,7.5,7.5,0,0,1-1.18-.11,3.81,3.81,0,0,1-1-.28,6.09,6.09,0,0,1,.11-.64,1.94,1.94,0,0,1,.26-.57,3.91,3.91,0,0,0,.91.28,4.89,4.89,0,0,0,1,.09,3.2,3.2,0,0,0,.7-.07,2,2,0,0,0,.57-.2,1.12,1.12,0,0,0,.39-.39,1.22,1.22,0,0,0,.14-.59.9.9,0,0,0-.28-.71,2.48,2.48,0,0,0-.77-.43Z"/><path class="cls-5" d="M57.8,24.25c-1.26.48-3.15,1.34-6.34,3l1,.09a45.63,45.63,0,0,1,5.42-2.71Z"/><polygon class="cls-6" points="57.71 25.27 56.36 25.68 56.84 24.36 56.02 23.22 57.43 23.27 58.28 22.15 58.66 23.5 59.98 23.95 58.82 24.73 58.8 26.14 57.71 25.27"/><path class="cls-5" d="M58.12,23.11l.11.43.11.37.37.11.43.14-.39.25-.31.23v.84l-.37-.28L57.78,25l-.37.12L57,25.2l.16-.43.13-.36-.22-.32-.28-.37.46,0,.39,0,.22-.32.28-.34m.29-1.64L57.25,23l-2-.07,1.14,1.6-.68,1.84,1.87-.59L59.16,27l0-2L60.81,24,59,23.34l-.55-1.87Z"/><rect class="cls-8" x="25.56" y="17" width="12.92" height="8.68"/><rect class="cls-9" x="25.56" y="23.97" width="12.92" height="0.11"/><path class="cls-6" d="M26.18,25.41V24.32h.16l.2.61h0v-.61h.16v1.09h-.16l-.23-.68h0v.68Z"/><path class="cls-6" d="M26.93,25.41h-.16L27,24.32h.21l.18,1.09h-.16l0-.23H27ZM27,25h.14L27,24.52h0Z"/><path class="cls-6" d="M27.43,24.48h-.16v-.16h.5v.16h-.16v.93h-.18Z"/><path class="cls-6" d="M27.82,25.41V24.32H28v1.09Z"/><path class="cls-6" d="M28.07,24.59a.2.2,0,0,1,0-.11.12.12,0,0,1,.05-.1.23.23,0,0,1,.09-.06s.06,0,.11,0,.09,0,.11,0l.1.06a.15.15,0,0,1,0,.1s0,.06,0,.11v.57a.22.22,0,0,1,0,.11.11.11,0,0,1,0,.09.26.26,0,0,1-.1.07s-.06,0-.11,0-.09,0-.11,0a.31.31,0,0,1-.09-.07.09.09,0,0,1-.05-.09s0-.07,0-.11Zm.18.55a.13.13,0,0,0,0,.09.1.1,0,0,0,.07,0c.05,0,.07,0,.07,0a.13.13,0,0,0,0-.09v-.55c0-.05,0-.07,0-.09a.1.1,0,0,0-.07,0c-.05,0-.07,0-.07,0s0,0,0,.09Z"/><path class="cls-6" d="M28.68,25.41V24.32h.16l.21.61h0v-.61h.16v1.09h-.16l-.23-.68h0v.68Z"/><path class="cls-6" d="M29.43,25.41h-.16l.19-1.09h.2l.18,1.09h-.16l0-.25h-.18Zm.05-.41h.14l-.07-.48h0Z"/><path class="cls-6" d="M29.89,25.41V24.32h.18v.93h.28v.16Z"/><path class="cls-6" d="M30.64,24.32h.25a.24.24,0,0,1,.28.27v.07s0,0,0,.07a0,0,0,0,1,0,0l-.05.05a.22.22,0,0,1,.12.09.34.34,0,0,1,0,.16.3.3,0,0,1,0,.13.12.12,0,0,1-.05.1.23.23,0,0,1-.09.06.2.2,0,0,1-.14,0h-.27V24.32Zm.18.45h.07a.18.18,0,0,0,.09,0,.16.16,0,0,0,0-.12c0-.11-.05-.16-.12-.16h-.07Zm0,.48h.07c.05,0,.09,0,.09-.05s0-.06,0-.13a.24.24,0,0,0,0-.14.18.18,0,0,0-.11,0h-.05Z"/><path class="cls-6" d="M31.28,25.41V24.32h.48v.16h-.3v.27h.23v.16h-.23v.32h.32v.18Z"/><path class="cls-6" d="M31.83,24.32h.25a.21.21,0,0,1,.2.09.33.33,0,0,1,.07.25v.43a.34.34,0,0,1-.07.25.25.25,0,0,1-.2.09h-.25Zm.18.93h.07s.09,0,.09,0a.22.22,0,0,0,0-.12v-.47c0-.07,0-.1,0-.12a.13.13,0,0,0-.09,0H32Z"/><path class="cls-6" d="M32.67,25.41V24.32h.48v.16h-.32v.27h.23v.16h-.23v.5Z"/><path class="cls-6" d="M33.22,25.41V24.32h.45v.16h-.29v.27h.22v.16h-.22v.32h.31v.18Z"/><path class="cls-6" d="M33.74,24.32H34a.23.23,0,0,1,.21.09.38.38,0,0,1,.06.25v.43a.4.4,0,0,1-.06.25.29.29,0,0,1-.21.09h-.25Zm.18.93H34s.07,0,.09,0a.22.22,0,0,0,0-.12v-.47c0-.07,0-.1,0-.12s0,0-.09,0h-.07Z"/><path class="cls-6" d="M34.35,25.41V24.32h.46v.16h-.3v.27h.23v.16h-.23v.32h.32v.18Z"/><path class="cls-6" d="M35.06,25.41h-.18V24.32h.25a.44.44,0,0,1,.23.06.43.43,0,0,1,.07.26v.11a.24.24,0,0,1,0,.07s0,0,0,0,0,0,0,0l.14.5h-.18l-.12-.46h-.09v.48Zm0-.59h.14s0,0,0,0,0,0,0,0v-.09c0-.07,0-.12,0-.14a.11.11,0,0,0-.09,0h-.07v.34Z"/><path class="cls-6" d="M35.65,25.41h-.16l.19-1.09h.2l.18,1.09H35.9l0-.25H35.7ZM35.7,25h.14l-.07-.48h0Z"/><path class="cls-6" d="M36.18,24.48H36v-.16h.5v.16h-.16v.93h-.19v-.93Z"/><path class="cls-6" d="M36.56,25.41V24.32h.19v1.09Z"/><path class="cls-6" d="M36.84,24.59a.2.2,0,0,1,0-.11.12.12,0,0,1,0-.1.23.23,0,0,1,.09-.06s.07,0,.11,0a.16.16,0,0,1,.12,0l.09.06a.15.15,0,0,1,0,.1s0,.06,0,.11v.57a.22.22,0,0,1,0,.11.11.11,0,0,1,0,.09.31.31,0,0,1-.09.07.16.16,0,0,1-.12,0s-.09,0-.11,0a.31.31,0,0,1-.09-.07.09.09,0,0,1,0-.09s0-.07,0-.11Zm.16.55a.13.13,0,0,0,0,.09.1.1,0,0,0,.07,0s.07,0,.07,0a.13.13,0,0,0,0-.09v-.55c0-.05,0-.07,0-.09a.11.11,0,0,0-.07,0c-.05,0-.07,0-.07,0s0,0,0,.09Z"/><path class="cls-6" d="M37.41,25.41V24.32h.16l.2.61h0v-.61h.16v1.09h-.16l-.23-.68h0v.68Z"/><polygon class="cls-7" points="38.46 17 42.88 17 41.58 21.36 42.88 25.68 38.46 25.68 38.46 17"/><path class="cls-10" d="M25.56,20.79A14.36,14.36,0,0,0,32,22.24a49.38,49.38,0,0,0,9.77-1.59L42.88,17H25.56Z"/><path class="cls-6" d="M32.67,23.66H31.44V23.5l.18-.07.09-.07a.27.27,0,0,0,.05-.16,1.38,1.38,0,0,0,0-.32v-.82a2.42,2.42,0,0,0,0-.39,1.25,1.25,0,0,0-.05-.29.61.61,0,0,0-.07-.18c0-.05-.06-.07-.09-.12L31.42,21a.62.62,0,0,0-.21,0A.56.56,0,0,0,31,21a.93.93,0,0,0-.25.16.45.45,0,0,0-.18.22.47.47,0,0,0-.07.28v1.16a1.58,1.58,0,0,0,0,.36.37.37,0,0,0,.1.16.35.35,0,0,0,.22.09v.16h-1.2v-.16a.52.52,0,0,0,.18-.07l.09-.06a.3.3,0,0,0,.05-.16,1.42,1.42,0,0,0,0-.32V21.22a.46.46,0,0,0-.05-.21.29.29,0,0,0-.11-.11l-.21-.07v-.16l.73,0h.18l0,.5,0,0a4.33,4.33,0,0,1,.37-.34,1.22,1.22,0,0,1,.3-.16.73.73,0,0,1,.29,0,1.28,1.28,0,0,1,.3,0,.63.63,0,0,1,.23.12.46.46,0,0,1,.15.2,1.17,1.17,0,0,1,.1.3,2.62,2.62,0,0,1,0,.43v1.16a1.38,1.38,0,0,0,0,.32.28.28,0,0,0,0,.16.16.16,0,0,0,.09.09.88.88,0,0,0,.2.07v.14Z"/><path class="cls-6" d="M33.38,21.17h0a2.75,2.75,0,0,1,.36-.32,2.85,2.85,0,0,1,.3-.16.91.91,0,0,1,.34,0,.89.89,0,0,1,.57.16,1,1,0,0,1,.36.5,2.23,2.23,0,0,1,.14.82,2.06,2.06,0,0,1-.16.86,1,1,0,0,1-.46.53,1.43,1.43,0,0,1-.7.18,3,3,0,0,1-.44,0,2.37,2.37,0,0,1-.43-.14L33,23.7l-.2,0V19.87c0-.06,0-.13,0-.2a.78.78,0,0,1-.05-.14l-.09-.07a.55.55,0,0,0-.23,0v-.16l.75,0h.19v1.93Zm0,1.37a2.12,2.12,0,0,0,0,.39.71.71,0,0,0,.07.22c0,.07.09.12.16.19a.65.65,0,0,0,.22.11,1.32,1.32,0,0,0,.28,0,.64.64,0,0,0,.57-.29,1.72,1.72,0,0,0,.18-.91,2.08,2.08,0,0,0-.18-.94.6.6,0,0,0-.53-.32,1,1,0,0,0-.29,0,1.17,1.17,0,0,0-.25.16.77.77,0,0,0-.19.23.49.49,0,0,0-.06.25Z"/><path class="cls-6" d="M37.07,21h-.76v1.89a.93.93,0,0,0,0,.32.29.29,0,0,0,.07.16.2.2,0,0,0,.11.09.88.88,0,0,0,.2.07v.16H35.45v-.16a.88.88,0,0,0,.2-.07.16.16,0,0,0,.09-.09.28.28,0,0,0,0-.16c0-.07,0-.18,0-.32V21h-.38v-.16a.53.53,0,0,1,.16,0l.06,0,.07-.07s0-.07.05-.12a.69.69,0,0,0,0-.23,2.67,2.67,0,0,1,.11-.54,1.39,1.39,0,0,1,.28-.37,1.16,1.16,0,0,1,.38-.2,1.43,1.43,0,0,1,.48-.07,2.49,2.49,0,0,1,.41,0v.57h-.32a.94.94,0,0,0-.13-.25.39.39,0,0,0-.23-.07.32.32,0,0,0-.18,0,.37.37,0,0,0-.14.09.35.35,0,0,0-.09.16c0,.07,0,.16-.07.25a2.06,2.06,0,0,0,0,.38v.32H37V21Z"/><path class="cls-9" d="M25.56,18.85a5.74,5.74,0,0,0,4.72.64,7.54,7.54,0,0,1,2-.21v0a8.89,8.89,0,0,0-2.14.32s-2.69.93-4.54-.39A3.34,3.34,0,0,1,25.56,18.85Z"/><polygon class="cls-5" points="58.34 19.39 57.46 19.53 57.89 18.73 57.46 17.94 58.34 18.1 58.98 17.44 59.12 18.32 59.92 18.73 59.12 19.12 58.98 20.03 58.34 19.39"/><path class="cls-5" d="M53.45,18.05l.22.21.19.16.25-.05.29-.07-.11.28-.11.22.13.21.16.25-.29-.05-.26,0-.15.18-.21.23-.07-.3,0-.25L53.22,19,53,18.85l.25-.14.22-.11,0-.25v-.3m-.39-1L53,18.3l-1.1.62,1.16.5.25,1.23.85-1,1.25.14-.64-1.1.53-1.13L54,17.87l-1-.82Z"/><polygon class="cls-5" points="52.08 23.29 51.62 23.75 51.55 23.11 50.99 22.81 51.55 22.54 51.65 21.9 52.1 22.38 52.72 22.27 52.42 22.84 52.72 23.41 52.08 23.29"/><path class="cls-5" d="M48.94,20.12l0,.21.05.16.16.07.18.07-.18.11-.14.09V21l0,.21-.16-.14-.14-.12-.16,0-.18.05.07-.19.07-.16-.1-.13-.11-.16.21,0,.15,0,.12-.13.14-.19m.18-.7-.55.66L47.73,20l.45.73-.34.8.82-.21.64.57.05-.84.72-.43-.79-.32-.16-.89Z"/></g></svg>
