<svg id="Layer_1" data-name="Layer 1" xmlns="http://www.w3.org/2000/svg" viewBox="0 0 89.29 87.13"><defs><style>.cls-1{fill:#fcb71b;}.cls-2{fill:#fff;}.cls-3,.cls-4,.cls-5{fill:none;stroke-linecap:round;stroke-width:1.72px;}.cls-3,.cls-4{stroke:#000;}.cls-3{stroke-linejoin:round;}.cls-4,.cls-5{stroke-miterlimit:10;}.cls-5{stroke:#e3087e;}.cls-6{fill:#d7107e;}</style></defs><rect class="cls-1" width="89.29" height="87.13"/><path class="cls-2" d="M48.65,12.65v19.9a1.3,1.3,0,0,1-1.29,1.3H30.84a1.3,1.3,0,0,1-1.29-1.3V12.65h19.1Z" transform="translate(6.64 6.34)"/><path class="cls-3" d="M48.65,12.65v19.9a1.3,1.3,0,0,1-1.29,1.3H30.84a1.3,1.3,0,0,1-1.29-1.3V12.65h19.1Z" transform="translate(6.64 6.34)"/><path class="cls-4" d="M35.08,12.65a4,4,0,1,1,8,0" transform="translate(6.64 6.34)"/><path class="cls-5" d="M43.94,24.9a4.8,4.8,0,0,1-4.84,3.26,4.82,4.82,0,0,1-4.84-3.24" transform="translate(6.64 6.34)"/><path d="M36.65,19.14a1.36,1.36,0,1,1-1.36-1.35,1.36,1.36,0,0,1,1.36,1.35" transform="translate(6.64 6.34)"/><path d="M44.26,19.18a1.36,1.36,0,0,1-2.71,0,1.36,1.36,0,1,1,2.71,0" transform="translate(6.64 6.34)"/><path class="cls-2" d="M9.63,41.1c1.83,0,2.54.57,2.54,1.77s-.95,2-2.65,2A3.33,3.33,0,0,1,7,44a.66.66,0,0,1-.18-.49.59.59,0,0,1,.63-.62.63.63,0,0,1,.42.17,2.63,2.63,0,0,0,1.73.58c.76,0,1.2-.27,1.2-.74s-.31-.55-1.39-.56c-1.81,0-2.5-.56-2.5-1.73s1-2,2.63-2a3.22,3.22,0,0,1,2.12.65.68.68,0,0,1,.23.53.59.59,0,0,1-.62.62.66.66,0,0,1-.41-.14,2.28,2.28,0,0,0-1.42-.46c-.71,0-1.18.29-1.18.74S8.61,41.1,9.63,41.1Z" transform="translate(6.64 6.34)"/><path class="cls-2" d="M17.22,42.33v1.82a.61.61,0,1,1-1.22,0V42.48c0-.67-.31-1-.9-1s-1,.42-1,1.13v1.56a.61.61,0,1,1-1.22,0V39.08a.61.61,0,1,1,1.22,0v1.78h0a1.63,1.63,0,0,1,1.28-.52C16.6,40.34,17.22,41,17.22,42.33Z" transform="translate(6.64 6.34)"/><path class="cls-2" d="M20.24,40.34a2.26,2.26,0,1,1,0,4.52,2.26,2.26,0,1,1,0-4.52Zm0,3.4a1.14,1.14,0,1,0-1.07-1.14A1.06,1.06,0,0,0,20.24,43.74Z" transform="translate(6.64 6.34)"/><path class="cls-2" d="M28,42.6a2,2,0,0,1-2.07,2.26,1.71,1.71,0,0,1-1.32-.54h0v1.5a.59.59,0,0,1-.62.65.58.58,0,0,1-.61-.65V41a.62.62,0,0,1,1.22-.15h0a1.69,1.69,0,0,1,1.33-.55A2,2,0,0,1,28,42.6Zm-1.25,0a1.05,1.05,0,0,0-1.07-1.14,1.14,1.14,0,0,0,0,2.28A1.06,1.06,0,0,0,26.74,42.6Z" transform="translate(6.64 6.34)"/><path class="cls-2" d="M35.1,41a.9.9,0,0,1-.09.36l-1.23,3a.64.64,0,0,1-.61.45.66.66,0,0,1-.62-.45l-.83-2.07h0l-.83,2.07a.64.64,0,0,1-.61.45.66.66,0,0,1-.63-.45l-1.23-3a1,1,0,0,1-.08-.35.59.59,0,0,1,.62-.61.57.57,0,0,1,.57.42L30.29,43h0l.86-2.15a.58.58,0,0,1,1.12,0L33.15,43h0l.77-2.13A.59.59,0,0,1,35.1,41Z" transform="translate(6.64 6.34)"/><path class="cls-2" d="M37.75,40.34a2.26,2.26,0,1,1-2.33,2.26A2.19,2.19,0,0,1,37.75,40.34Zm0,3.4a1.14,1.14,0,1,0-1.07-1.14A1.06,1.06,0,0,0,37.75,43.74Z" transform="translate(6.64 6.34)"/><path class="cls-2" d="M43.92,41a.57.57,0,0,1-.61.61c-.78,0-1.22.35-1.22,1.28v1.28a.62.62,0,1,1-1.23,0V41a.62.62,0,1,1,1.23,0h0a1.28,1.28,0,0,1,1.2-.64A.57.57,0,0,1,43.92,41Z" transform="translate(6.64 6.34)"/><path class="cls-2" d="M48.33,43.71a.7.7,0,0,1,.19.49.58.58,0,0,1-.61.61.64.64,0,0,1-.51-.26l-1.18-1.47-.56.43v.64a.61.61,0,1,1-1.22,0V39.08a.61.61,0,1,1,1.22,0v3.06l1.77-1.55a.66.66,0,0,1,.46-.19.59.59,0,0,1,.35,1.07l-1.13.9Z" transform="translate(6.64 6.34)"/><path class="cls-2" d="M51.25,44.86a2.26,2.26,0,1,1,0-4.52,2.08,2.08,0,0,1,2.19,1.93v.07a.59.59,0,0,1-.62.64H50.13a1.08,1.08,0,0,0,1.12.82,1.21,1.21,0,0,0,.93-.37.63.63,0,0,1,.41-.17.51.51,0,0,1,.54.53.59.59,0,0,1-.13.36A2.21,2.21,0,0,1,51.25,44.86Zm-1.12-2.73h2.11a1,1,0,0,0-1-.73A1,1,0,0,0,50.13,42.13Z" transform="translate(6.64 6.34)"/><path class="cls-2" d="M57.16,41a.58.58,0,0,1-.61.61c-.78,0-1.22.35-1.22,1.28v1.28a.59.59,0,0,1-.62.66.59.59,0,0,1-.61-.66V41a.62.62,0,1,1,1.23,0h0a1.31,1.31,0,0,1,1.21-.64A.57.57,0,0,1,57.16,41Z" transform="translate(6.64 6.34)"/><path class="cls-2" d="M59.55,42.09c1.36,0,1.89.44,1.89,1.35s-.72,1.42-1.89,1.42a2.85,2.85,0,0,1-1.91-.48.53.53,0,0,1-.21-.43A.52.52,0,0,1,58,43.4a.65.65,0,0,1,.4.14,2.05,2.05,0,0,0,1.08.27c.5,0,.78-.14.78-.39s-.2-.33-.9-.33c-1.33,0-1.85-.43-1.85-1.31s.72-1.44,1.9-1.44a2.55,2.55,0,0,1,1.62.4.54.54,0,0,1,.25.45.53.53,0,0,1-.55.56.73.73,0,0,1-.39-.13,1.53,1.53,0,0,0-.84-.23c-.49,0-.78.15-.78.4S58.88,42.09,59.55,42.09Z" transform="translate(6.64 6.34)"/><path class="cls-2" d="M64.71,41.5c-.33,0-.55-.16-.55-.5a.49.49,0,0,1,.55-.5h3.9a.5.5,0,0,1,.55.5.48.48,0,0,1-.55.5Zm3.9,1.22a.5.5,0,0,1,.55.5.49.49,0,0,1-.55.5h-3.9a.48.48,0,0,1-.55-.5.49.49,0,0,1,.55-.5Z" transform="translate(6.64 6.34)"/><path class="cls-2" d="M19.93,53.59a.73.73,0,0,1,.2.49.63.63,0,0,1-.67.68.71.71,0,0,1-.54-.27L17,52.2l-.76.63V54a.64.64,0,0,1-.66.72.65.65,0,0,1-.68-.72V49.36a.64.64,0,0,1,.68-.71.63.63,0,0,1,.66.71v1.85l2.73-2.38a.74.74,0,0,1,.47-.18.61.61,0,0,1,.65.64.67.67,0,0,1-.24.54l-1.88,1.56Z" transform="translate(6.64 6.34)"/><path class="cls-2" d="M22.92,54.81a2.26,2.26,0,1,1-.05-4.51,2.08,2.08,0,0,1,2.2,1.92v.07a.6.6,0,0,1-.63.64H21.8a1.07,1.07,0,0,0,1.12.82,1.27,1.27,0,0,0,.93-.36.56.56,0,0,1,.4-.17.5.5,0,0,1,.54.53.55.55,0,0,1-.12.35A2.23,2.23,0,0,1,22.92,54.81ZM21.8,52.09h2.1a1,1,0,0,0-1-.74A1,1,0,0,0,21.8,52.09Z" transform="translate(6.64 6.34)"/><path class="cls-2" d="M30,51v3.32a2,2,0,0,1-2.23,2.16,2.25,2.25,0,0,1-1.82-.66.59.59,0,0,1-.13-.37.55.55,0,0,1,.58-.58.52.52,0,0,1,.34.12,1.36,1.36,0,0,0,1,.38,1,1,0,0,0,1-1v-.28h0a1.59,1.59,0,0,1-1.27.52c-1.16,0-1.78-.69-1.78-2V51a.61.61,0,1,1,1.22,0v1.48c0,.66.31,1,.88,1s1-.42,1-1.12V51A.62.62,0,1,1,30,51Z" transform="translate(6.64 6.34)"/><path class="cls-2" d="M37.28,50.94a1.07,1.07,0,0,1-.08.36l-1.24,3a.62.62,0,0,1-.61.45.65.65,0,0,1-.62-.45l-.83-2.07h0l-.82,2.07a.66.66,0,0,1-1.25,0l-1.22-3a.87.87,0,0,1-.08-.36.61.61,0,0,1,1.19-.19l.78,2.15h0l.86-2.15a.59.59,0,0,1,.56-.42.56.56,0,0,1,.56.42l.87,2.13h0l.77-2.13a.59.59,0,0,1,.56-.42A.57.57,0,0,1,37.28,50.94Z" transform="translate(6.64 6.34)"/><path class="cls-2" d="M39.94,50.3a2.26,2.26,0,1,1-2.33,2.25A2.18,2.18,0,0,1,39.94,50.3Zm0,3.39a1.14,1.14,0,1,0-1.08-1.14A1.06,1.06,0,0,0,39.94,53.69Z" transform="translate(6.64 6.34)"/><path class="cls-2" d="M46.1,50.93a.57.57,0,0,1-.61.61c-.78,0-1.22.35-1.22,1.28V54.1a.61.61,0,1,1-1.22,0V51a.61.61,0,1,1,1.22,0h0a1.31,1.31,0,0,1,1.2-.64A.57.57,0,0,1,46.1,50.93Z" transform="translate(6.64 6.34)"/><path class="cls-2" d="M50.52,53.66a.74.74,0,0,1,.19.49.58.58,0,0,1-.61.61.65.65,0,0,1-.52-.26L48.4,53l-.55.43v.64a.59.59,0,0,1-.62.66.59.59,0,0,1-.61-.66V49a.58.58,0,0,1,.61-.65.59.59,0,0,1,.62.65V52.1l1.76-1.55a.65.65,0,0,1,.46-.2.56.56,0,0,1,.59.59.54.54,0,0,1-.23.48l-1.13.9Z" transform="translate(6.64 6.34)"/><path class="cls-2" d="M53.44,54.81a2.26,2.26,0,1,1,0-4.51,2.08,2.08,0,0,1,2.2,1.92v.07a.6.6,0,0,1-.63.64H52.32a1.07,1.07,0,0,0,1.12.82,1.27,1.27,0,0,0,.93-.36.56.56,0,0,1,.4-.17.5.5,0,0,1,.54.53.56.56,0,0,1-.13.35A2.19,2.19,0,0,1,53.44,54.81Zm-1.12-2.72h2.1a1,1,0,0,0-1-.74A1,1,0,0,0,52.32,52.09Z" transform="translate(6.64 6.34)"/><path class="cls-2" d="M59.34,50.93a.57.57,0,0,1-.61.61c-.78,0-1.22.35-1.22,1.28V54.1a.62.62,0,1,1-1.23,0V51a.58.58,0,0,1,.61-.65.57.57,0,0,1,.62.61h0a1.3,1.3,0,0,1,1.2-.64A.57.57,0,0,1,59.34,50.93Z" transform="translate(6.64 6.34)"/><path class="cls-2" d="M61.72,52c1.37,0,1.89.44,1.89,1.36s-.71,1.41-1.89,1.41a2.81,2.81,0,0,1-1.91-.48.53.53,0,0,1-.2-.42.53.53,0,0,1,.54-.56.67.67,0,0,1,.4.14,2,2,0,0,0,1.07.27c.51,0,.78-.14.78-.39s-.19-.33-.89-.33c-1.33,0-1.86-.42-1.86-1.31s.73-1.43,1.9-1.43a2.54,2.54,0,0,1,1.62.39.57.57,0,0,1,.26.46.52.52,0,0,1-.55.55.76.76,0,0,1-.4-.13,1.51,1.51,0,0,0-.84-.23c-.48,0-.78.16-.78.4S61.06,52,61.72,52Z" transform="translate(6.64 6.34)"/><path class="cls-6" d="M16.67,63.19a.45.45,0,0,1-.5-.46.45.45,0,0,1,.5-.47h.56l.15-1h-.44a.45.45,0,0,1-.51-.46.46.46,0,0,1,.51-.46h.56l.15-1.06a.49.49,0,0,1,.51-.46.48.48,0,0,1,.5.61l-.14.91h1.1l.15-1.06a.51.51,0,1,1,1,.15l-.13.91h.43a.46.46,0,0,1,.5.46.45.45,0,0,1-.5.46h-.56l-.15,1h.45a.45.45,0,0,1,.49.47.44.44,0,0,1-.49.46h-.58l-.15,1a.51.51,0,1,1-1-.14l.13-.91H18.12l-.15,1a.49.49,0,0,1-.51.47.48.48,0,0,1-.5-.61l.14-.91Zm2.68-.93.14-1H18.4l-.16,1Z" transform="translate(6.64 6.34)"/><path d="M24.8,61c1.83,0,2.55.57,2.55,1.77s-1,2-2.66,2a3.3,3.3,0,0,1-2.5-.84.69.69,0,0,1-.18-.48.6.6,0,0,1,.63-.62.6.6,0,0,1,.42.16,2.58,2.58,0,0,0,1.73.58c.76,0,1.2-.27,1.2-.73s-.31-.56-1.39-.57c-1.81,0-2.5-.56-2.5-1.73s1-2,2.63-2a3.2,3.2,0,0,1,2.12.66.64.64,0,0,1,.24.53.6.6,0,0,1-.63.62.64.64,0,0,1-.4-.15,2.39,2.39,0,0,0-1.43-.46c-.71,0-1.17.29-1.17.74S23.78,61,24.8,61Z" transform="translate(6.64 6.34)"/><path d="M32.4,62.24v1.81a.62.62,0,1,1-1.23,0V62.38c0-.66-.3-1-.9-1s-1,.42-1,1.13v1.55a.59.59,0,0,1-.62.66.59.59,0,0,1-.61-.66V59a.58.58,0,0,1,.61-.65.59.59,0,0,1,.62.65v1.79h0a1.6,1.6,0,0,1,1.28-.52C31.77,60.25,32.4,61,32.4,62.24Z" transform="translate(6.64 6.34)"/><path d="M35.42,60.25a2.26,2.26,0,1,1-2.33,2.25A2.17,2.17,0,0,1,35.42,60.25Zm0,3.39a1.14,1.14,0,1,0-1.08-1.14A1.06,1.06,0,0,0,35.42,63.64Z" transform="translate(6.64 6.34)"/><path d="M43.16,62.5a2,2,0,0,1-2.06,2.26,1.71,1.71,0,0,1-1.33-.53h0v1.49a.62.62,0,1,1-1.23,0V61a.58.58,0,0,1,.61-.65.57.57,0,0,1,.61.49h0a1.69,1.69,0,0,1,1.34-.54A2,2,0,0,1,43.16,62.5Zm-1.25,0a1,1,0,0,0-1.07-1.13,1.14,1.14,0,0,0,0,2.27A1.05,1.05,0,0,0,41.91,62.5Z" transform="translate(6.64 6.34)"/><path class="cls-6" d="M49,63.54a.7.7,0,0,1,.21.49.63.63,0,0,1-.67.68.72.72,0,0,1-.55-.27l-1.94-2.28-.77.62V64A.67.67,0,1,1,44,64V59.32a.67.67,0,1,1,1.33,0v1.84l2.74-2.37a.66.66,0,0,1,.46-.19.61.61,0,0,1,.66.64.65.65,0,0,1-.25.54L47,61.34Z" transform="translate(6.64 6.34)"/><path class="cls-6" d="M49.84,59a.65.65,0,0,1,.69-.69.65.65,0,0,1,.7.69.66.66,0,0,1-.7.7A.65.65,0,0,1,49.84,59ZM51.14,61v3.1a.61.61,0,1,1-1.22,0V61a.61.61,0,1,1,1.22,0Z" transform="translate(6.64 6.34)"/><path class="cls-6" d="M56.4,62.24v1.81a.61.61,0,1,1-1.22,0V62.38c0-.66-.31-1-.9-1s-1,.42-1,1.13v1.55a.61.61,0,1,1-1.22,0V61a.58.58,0,0,1,.61-.65.57.57,0,0,1,.6.48h0a1.64,1.64,0,0,1,1.29-.53C55.78,60.25,56.4,61,56.4,62.24Z" transform="translate(6.64 6.34)"/><path class="cls-6" d="M61.73,59v5.07a.62.62,0,0,1-1.22.16h0a1.68,1.68,0,0,1-1.34.55,2.26,2.26,0,0,1,0-4.51,1.67,1.67,0,0,1,1.33.54h0V59a.61.61,0,1,1,1.22,0ZM60.51,62.5a1.07,1.07,0,0,0-1.1-1.13,1.14,1.14,0,0,0,0,2.27A1.08,1.08,0,0,0,60.51,62.5Z" transform="translate(6.64 6.34)"/></svg>