<svg xmlns="http://www.w3.org/2000/svg" xmlns:xlink="http://www.w3.org/1999/xlink" width="120" height="120" viewBox="0 0 120 120">
  <defs>
    <clipPath id="clip-Sealy">
      <rect width="120" height="120"/>
    </clipPath>
  </defs>
  <g id="Sealy" clip-path="url(#clip-Sealy)">
    <rect width="120" height="120" fill="#fff"/>
    <path id="Path_27305" data-name="Path 27305" d="M60,120A60,60,0,1,0,0,60,60,60,0,0,0,60,120Z" fill="none" stroke="#dedede" stroke-width="1"/>
    <g id="mega_sealy-logo" transform="translate(-83.3 -85.906)">
      <g id="Group_53144" data-name="Group 53144" transform="translate(115.3 122)">
        <path id="Path_27415" data-name="Path 27415" d="M118.737,145.978h0a10.986,10.986,0,0,1,6.241-9.937c6.76-3.485,15.222-6.792,18.464-8.041-1.978-.746-15.108-5.9-21.625-5.9-2.383,0-3.955.794-4.62,3.129-1.054,3.664-1.9,11.461-1.9,20.766h0c0,9.289.843,17.086,1.9,20.766.665,2.334,2.237,3.129,4.62,3.129,6.533,0,19.647-5.155,21.625-5.9-3.242-1.248-11.7-4.555-18.464-8.041A11.087,11.087,0,0,1,118.737,145.978Z" transform="translate(-115.3 -122.084)" fill="#194f90"/>
        <path id="Path_27416" data-name="Path 27416" d="M317.142,145.895h0c0-9.289-.843-17.086-1.9-20.766-.665-2.334-2.237-3.129-4.62-3.129-6.533,0-19.647,5.155-21.625,5.9,3.242,1.248,11.7,4.555,18.464,8.041a11,11,0,0,1,6.241,9.937h0a10.986,10.986,0,0,1-6.241,9.937c-6.76,3.485-15.222,6.792-18.464,8.041,1.978.746,15.108,5.9,21.625,5.9,2.383,0,3.955-.794,4.62-3.129,1.054-3.647,1.9-11.445,1.9-20.734Z" transform="translate(-260.842 -122)" fill="#194f90"/>
      </g>
      <g id="Group_53145" data-name="Group 53145" transform="translate(118.737 127.901)">
        <path id="Path_27417" data-name="Path 27417" d="M179.669,166.441c-6.76-3.485-15.222-6.792-18.464-8.041-3.242,1.248-11.7,4.555-18.464,8.041a11,11,0,0,0-6.241,9.937h0a10.986,10.986,0,0,0,6.241,9.937c6.76,3.485,15.222,6.792,18.464,8.041,3.242-1.248,11.7-4.555,18.464-8.041a11,11,0,0,0,6.241-9.937h0A10.976,10.976,0,0,0,179.669,166.441Z" transform="translate(-136.5 -158.4)" fill="#fff"/>
      </g>
      <g id="Group_53146" data-name="Group 53146" transform="translate(159.442 149.591)">
        <path id="Path_27418" data-name="Path 27418" d="M388.313,292.2a.713.713,0,1,0,.713.713A.709.709,0,0,0,388.313,292.2Zm0,1.313a.616.616,0,1,1,.616-.616A.616.616,0,0,1,388.313,293.513Z" transform="translate(-387.6 -292.2)"/>
        <path id="Path_27419" data-name="Path 27419" d="M390.648,294.881c0-.032-.016-.081-.016-.113a.146.146,0,0,0-.016-.081c0-.016-.016-.032-.032-.049s-.032-.016-.032-.032h-.016c.016,0,.032-.016.049-.032a.084.084,0,0,0,.032-.065.175.175,0,0,0,.016-.1.208.208,0,0,0-.065-.162.346.346,0,0,0-.195-.049H390v.778h.146v-.324h.178c.032,0,.049,0,.065.016.016,0,.032.016.049.032s.016.032.016.065v.146c0,.016.016.049.016.065h.162l-.016-.016C390.665,294.929,390.665,294.913,390.648,294.881Zm-.47-.567h.259c.016,0,.032,0,.032.016.016,0,.016.016.032.032,0,.016.016.032.016.049a.111.111,0,0,1-.113.113h-.211v-.211Z" transform="translate(-389.611 -293.876)"/>
      </g>
      <path id="Path_27420" data-name="Path 27420" d="M175.116,208.035c1.735,0,1.183,2.513,3,2.513a1.215,1.215,0,0,0,1.183-1.2c0-1.427-1.686-2.448-3.388-2.448-2.529,0-4.717,1.962-4.717,5.674,0,2.14.632,4.993.632,7.133,0,1.281-.519,2.188-1.508,2.188-1.8,0-1.929-2.5-3.55-2.5a1.155,1.155,0,0,0-1.167,1.248c0,1.459,1.767,2.561,3.631,2.561A4.472,4.472,0,0,0,174,218.653c0-3.566-.567-4.96-.567-8.17C173.462,209.007,174.143,208.035,175.116,208.035Z" transform="translate(-42.146 -71.137)"/>
      <path id="Path_27421" data-name="Path 27421" d="M251.928,210.4c-.049,0-.438-.032-1.1-.032s-.989.032-1.054.032a.128.128,0,0,0-.13.081c-.227.535-1.475,3.356-2.723,6.193h0c-.843,2.01-2.3,3.7-2.869,3.7-.551,0-.227-.94.259-2.124l3.469-7.749c.016-.049-.016-.081-.065-.081s-.454-.032-1.135-.032-1.005.032-1.086.032-.113.032-.13.081c-.259.567-1.7,3.842-2.788,6.436-1.119,2.059-2.545,3.437-3.129,3.437-.454,0-.211-.729.13-1.508l5.755-13.115a.082.082,0,0,0-.081-.113c-.065,0-.438-.032-1.086-.032s-.989.032-1.054.032a.128.128,0,0,0-.13.081l-5.333,12.109c-1.005,1.653-2.026,2.561-2.545,2.561-.454,0-.211-.729.13-1.508l3.793-8.316a.082.082,0,0,0-.081-.113c-.065,0-.438-.032-1.086-.032s-.989.032-1.054.032a.128.128,0,0,0-.13.081l-.454.973c-.016-.6-.276-1.183-1.1-1.183-2.075,0-4.539,2.967-5.8,6.079h0c-1.264,2.091-3.826,4.28-4.879,4.28-.47,0-.794-.211-.794-.956a4.746,4.746,0,0,1,.324-1.54.307.307,0,0,1,.276-.195c3.129-.519,5.641-3.631,5.641-5.917a1.624,1.624,0,0,0-1.718-1.735c-2.642,0-6.663,5.512-6.663,9.418,0,1.443.584,2.415,1.978,2.415,1.572,0,3.826-1.832,5.22-3.907a8.661,8.661,0,0,0-.243,1.864c0,1.248.47,2.01,1.362,2.01,1.1,0,2.107-1.151,2.886-2.383-.276,1.329.049,2.383,1.151,2.383,1.037,0,2.351-1.248,3.21-2.464-.292,1.362.016,2.464,1.135,2.464,1.086,0,2.545-1.427,3.453-2.707-.421,1.653,0,2.707.94,2.707.892,0,1.913-.827,2.8-2.01-.648,1.475-1.135,2.61-1.264,2.918-.438,1.086-.843,2.01-1.848,2.01-1.443,0-1.816-1.832-3.129-1.832a.91.91,0,0,0-.94.94c0,1.021,1.556,1.8,3.015,1.8,2.837,0,4.636-2.3,5.739-4.734l5.009-10.683C252.025,210.447,251.992,210.4,251.928,210.4Zm-27.493,6.4c.551-2.01,2.869-5.576,3.891-5.576.146,0,.276.081.276.308,0,1.443-2.383,5.042-4,5.447C224.515,217.012,224.4,216.948,224.434,216.8Zm9.37-.065c-.973,1.88-2.14,3.55-2.772,3.55-.243,0-.357-.211-.357-.551,0-2.659,3.307-8.284,4.507-8.284.292,0,.357.259.357.567a7.683,7.683,0,0,1-.632,2.367Z" transform="translate(-88.984 -70.048)"/>
    </g>
  </g>
</svg>
