<svg xmlns="http://www.w3.org/2000/svg" xmlns:xlink="http://www.w3.org/1999/xlink" width="120" height="120" viewBox="0 0 120 120">
  <defs>
    <clipPath id="clip-Tempur">
      <rect width="120" height="120"/>
    </clipPath>
  </defs>
  <g id="Tempur" clip-path="url(#clip-Tempur)">
    <rect width="120" height="120" fill="#fff"/>
    <path id="Path_27305" data-name="Path 27305" d="M60,120A60,60,0,1,0,0,60,60,60,0,0,0,60,120Z" fill="none" stroke="#dedede" stroke-width="1"/>
    <g id="mega_tempur-logo" transform="translate(-26.7 -125.008)">
      <g id="Group_53137" data-name="Group 53137" transform="translate(50.85 166.727)">
        <g id="Group_53136" data-name="Group 53136" transform="translate(0 0)">
          <g id="Group_53135" data-name="Group 53135">
            <g id="Group_53134" data-name="Group 53134">
              <path id="Path_27328" data-name="Path 27328" d="M103.613,209.188c-1.135-.75-2.635-.11-4.118.531-1.226.531-2.4,1.007-3.276.677-2.123-.805-3.514-.878-4.154-.2a1.524,1.524,0,0,0-.366,1.061,4.753,4.753,0,0,0,.348,1.647h0a.058.058,0,1,0,.11-.037,2.171,2.171,0,0,1,.146-2.031c.421-.421,1.446-.714,4.008.238,1.1.4,2.251-.165,3.386-.714,1.263-.6,2.452-1.189,3.44-.439,1.153.86,1.061,1.629.457,2.928-.018.037,0,.055.018.073a.056.056,0,0,0,.073,0l.037-.037.018-.018c.915-1.647,1.171-2.837-.128-3.678" transform="translate(-91.7 -201.141)" fill="#565656"/>
              <path id="Path_27329" data-name="Path 27329" d="M191.8,207.737h0c0,.037.018.073.037.073h0l.11.037h.037a24.346,24.346,0,0,0,7.082.421,20.226,20.226,0,0,1,4.209.128.049.049,0,0,0,.055-.055h0c0-.037-.018-.055-.037-.055a28.147,28.147,0,0,0-5.161-.421,41.1,41.1,0,0,1-6.131-.146.4.4,0,0,0-.146-.018h0c-.018,0-.055.018-.055.037" transform="translate(-173.482 -200.202)" fill="#565656"/>
              <path id="Path_27330" data-name="Path 27330" d="M166.831,176.494a1.105,1.105,0,0,0-.933-.146c-.183.018-.366.055-.439,0-1.007-.805-1.446-.531-2.05-.11-.073.055-.165.11-.238.165-.128.055-.238.11-.366.165-.238.128-.512.22-.787.348a4.028,4.028,0,0,1-1.537.073,13,13,0,0,1-3.715-1.373c-1.995-.952-4.282-2.031-6.5-1.9-3.7.22-5-.128-8.729-2.251-4.795-2.763-7.448-3.66-11.309-1.976-.055.018-.128.037-.183.055-.2.073-.421.146-.622.238-.128.055-.22.073-.329.128-2.837.97-4.264.329-7.192-1.007l-2.306-1.007c-4.868-2.05-6.332-1.226-7.466,1.135a7.28,7.28,0,0,1-2.141,2.946,3.245,3.245,0,0,0-2.1-1.757,7.339,7.339,0,0,1-1.757-.677,7.876,7.876,0,0,0-.878-.4,3.3,3.3,0,0,0-.805-.384,4.459,4.459,0,0,0-3.953.567,3.127,3.127,0,0,0-1.244,2.837,4.417,4.417,0,0,0,1.135,2.6.052.052,0,0,0,.073-.073,3.732,3.732,0,0,1-.842-2.123,2.893,2.893,0,0,1,.878-2.452,4.037,4.037,0,0,1,3.331-.878c1.519.238,1.922,1.373,2.288,2.452.421,1.208.842,2.452,2.873,2.306a2.526,2.526,0,0,1,2.562,1.446,2.64,2.64,0,0,1-.842,3.038q-.027.027,0,.11a.056.056,0,0,0,.073,0l.384-.329a3.052,3.052,0,0,0,.714-3.294,2.539,2.539,0,0,0-2.507-1.409c-2.013.037-2.324-.97-2.654-2.123a5.637,5.637,0,0,0-.659-1.574,4.978,4.978,0,0,0,1.7.75,3.287,3.287,0,0,1,1.94,1.556,1.544,1.544,0,0,0-.256.11,1.893,1.893,0,0,1-1.592-.421c-.037-.037-.11-.055-.146-.11h0c-.018-.018-.055-.018-.11.018,0,.018-.018.018-.018.037a.067.067,0,0,0,.018.055h0l.11.073c.018,0,.018.018.037.018a2.453,2.453,0,0,0,1.94.512c.933-.238,1.793-1.19,2.635-2.965,1.061-2.2,1.995-2.91,6.954-.97,1.043.4,1.9.787,2.654,1.135,2.782,1.226,3.989,1.757,7.283.4.274-.11.6-.22.933-.366,3.514-1.263,6.478-.183,11.163,2.525a12.723,12.723,0,0,0,6.771,1.83c.75.037,1.537.073,2.434.183a16.616,16.616,0,0,1,5.783,1.9h.018c-4.154-1.409-6.057-1.025-7.741-.714a7.177,7.177,0,0,1-3.331.11c-5.728-1.3-7.924-.878-9.2-.659v-.128a1.968,1.968,0,0,0,.384-1.556,4.548,4.548,0,0,0-.439-1.464c-.018-.018-.037-.037-.055-.037H135.9c-.018.018-.037.037-.037.055v.018a3,3,0,0,1,.275.97,2.346,2.346,0,0,1-1.1,2.324.067.067,0,0,0-.018.055h0a.039.039,0,0,0,.037.037,1.317,1.317,0,0,1,.641.714,2.816,2.816,0,0,1,.22.86,3.348,3.348,0,0,1-.238,1.647v.018a.039.039,0,0,0,.037.037c.018.018.055,0,.073-.018v-.018h0a3.417,3.417,0,0,0,.512-2.2,2.623,2.623,0,0,0-.073-.4,1.381,1.381,0,0,0-.183-.439h0l.165-.018h0c1.3-.238,3.239-.6,9.1.512a9.758,9.758,0,0,0,3.349,0c1.885-.22,4.191-.512,9.882,1.244h0a5.12,5.12,0,0,0,1.171.238,6.677,6.677,0,0,0,3.55-.787,1.605,1.605,0,0,1,2.013.275c.128.11.348.055.586.018a1.05,1.05,0,0,1,.915.11c.274.2.183,1.061.146,1.537a.055.055,0,1,0,.11,0v-.018h0c.018-.183.11-.97.11-1.116a1.5,1.5,0,0,0-.311-.842" transform="translate(-97.858 -166.727)" fill="#565656"/>
            </g>
          </g>
        </g>
        <path id="Path_27331" data-name="Path 27331" d="M97.2,240.916h-3V238.5h9.223v2.416h-3v9.736H97.2Z" transform="translate(-93.742 -225.365)" fill="#565656"/>
        <path id="Path_27332" data-name="Path 27332" d="M149.6,238.5h8.546v2.306h-5.307v2.507h5.033v2.269h-5.033v2.763h5.508v2.306H149.6Z" transform="translate(-139.004 -225.365)" fill="#565656"/>
        <path id="Path_27333" data-name="Path 27333" d="M203.9,238.5h5.087l2.58,8.07h.018l2.708-8.07h4.9v12.151h-3.166l.055-9.315h-.037l-3.093,9.315h-2.983l-2.946-9.315h-.037l.073,9.315H203.9Z" transform="translate(-183.367 -225.365)" fill="#565656"/>
        <path id="Path_27334" data-name="Path 27334" d="M297.2,238.5h3.861c3.715,0,5.453,1.244,5.453,3.971,0,2.452-1.793,3.916-4.813,3.916h-1.244v4.227h-3.221L297.2,238.5Zm3.221,5.6h.823c1.116,0,1.995-.4,1.995-1.665,0-1.226-.878-1.629-1.995-1.629h-.823Z" transform="translate(-259.593 -225.365)" fill="#565656"/>
        <path id="Path_27335" data-name="Path 27335" d="M363.951,246.121c0,3.331-2.159,4.813-5.325,4.813s-5.325-1.5-5.325-4.813V238.6h3.221v6.972c0,1.592.439,2.965,2.086,2.965s2.086-1.354,2.086-2.965V238.6h3.221v7.521Z" transform="translate(-305.427 -225.447)" fill="#565656"/>
        <path id="Path_27336" data-name="Path 27336" d="M418.5,238.5h5.764c2.159,0,3.916.97,3.916,3.074a2.86,2.86,0,0,1-2.324,3.074v.037c1.043.275,1.116,1.208,1.72,2.69l1.19,3.312H425.4l-.677-2.2c-.659-2.086-1.061-2.6-2.287-2.6h-.677v4.776h-3.221V238.5Zm3.257,5.051h.842c1.043,0,2.361-.037,2.361-1.409,0-1.135-1.135-1.336-2.361-1.336h-.842Z" transform="translate(-358.695 -225.365)" fill="#565656"/>
        <path id="Path_27337" data-name="Path 27337" d="M473.5,234.735a1.135,1.135,0,1,1,1.135,1.135A1.152,1.152,0,0,1,473.5,234.735Zm2.086,0a.952.952,0,1,0-1.9,0,.954.954,0,0,0,.952.988A.965.965,0,0,0,475.586,234.735Zm-.384.622h-.183l-.366-.586h-.275v.586h-.165v-1.244h.549c.348,0,.439.128.439.348,0,.238-.183.348-.4.348Zm-.586-.714c.183,0,.439.018.439-.22,0-.2-.165-.22-.329-.22h-.366v.439Z" transform="translate(-403.63 -221.362)" fill="#565656"/>
      </g>
      <g id="Group_53138" data-name="Group 53138" transform="translate(41.7 197.338)">
        <path id="Path_27338" data-name="Path 27338" d="M45.854,344.684l-.6-1.848H42.963l-.622,1.848H41.7l2.141-5.984h.586l2.159,5.984Zm-1.537-4.612c-.073-.256-.146-.512-.2-.769H44.1c-.055.256-.146.531-.22.769l-.769,2.306h1.976Z" transform="translate(-41.7 -337.84)" fill="#565656"/>
        <path id="Path_27339" data-name="Path 27339" d="M93.452,350.076v-3.148c0-.769-.366-1.171-1.025-1.171a1.223,1.223,0,0,0-.97.476v3.861h-.622v-3.386c0-.586-.384-.952-1.061-.952a2.237,2.237,0,0,0-.933.183v4.154H88.2v-4.465a3.786,3.786,0,0,1,1.537-.329,1.776,1.776,0,0,1,1.446.586,1.812,1.812,0,0,1,1.336-.586,1.46,1.46,0,0,1,1.574,1.629v3.166H93.47v-.018Z" transform="translate(-79.69 -343.232)" fill="#565656"/>
        <path id="Path_27340" data-name="Path 27340" d="M127.893,350c-1.043,0-1.793-.4-1.793-1.373,0-1.263,1.208-1.629,2.708-1.775v-.275c0-.732-.4-.988-1.061-.988a2.907,2.907,0,0,0-1.19.274l-.165-.439a3.24,3.24,0,0,1,1.391-.329c.988,0,1.629.439,1.629,1.537v3.074A3.355,3.355,0,0,1,127.893,350Zm.915-2.763c-1.244.165-2.086.384-2.086,1.391,0,.659.458.952,1.189.952a2.1,2.1,0,0,0,.915-.183v-2.159Z" transform="translate(-110.655 -343.069)" fill="#565656"/>
        <path id="Path_27341" data-name="Path 27341" d="M150.893,344.694a1.1,1.1,0,0,1-1.153-1.208v-3.129H149.1v-.439h.641v-1.1l.622-.22v1.318h.915v.439h-.915v3.166a.672.672,0,0,0,.677.714.967.967,0,0,0,.22-.018v.439C151.2,344.657,151.04,344.694,150.893,344.694Z" transform="translate(-129.446 -337.758)" fill="#565656"/>
        <path id="Path_27342" data-name="Path 27342" d="M168.593,344.694a1.1,1.1,0,0,1-1.153-1.208v-3.129H166.8v-.439h.641v-1.1l.622-.22v1.318h.915v.439h-.915v3.166a.672.672,0,0,0,.677.714.966.966,0,0,0,.22-.018v.439C168.886,344.657,168.74,344.694,168.593,344.694Z" transform="translate(-143.907 -337.758)" fill="#565656"/>
        <path id="Path_27343" data-name="Path 27343" d="M187.621,345.749a2.713,2.713,0,0,0-.567-.055,1.378,1.378,0,0,0-.714.146v4.172H185.7v-4.484a3.961,3.961,0,0,1,1.739-.329,1.781,1.781,0,0,1,.329.018Z" transform="translate(-159.348 -343.15)" fill="#565656"/>
        <path id="Path_27344" data-name="Path 27344" d="M200.64,347.927c.073,1.1.659,1.647,1.537,1.647a2.774,2.774,0,0,0,1.19-.275l.165.458a2.864,2.864,0,0,1-1.409.329c-1.226,0-2.123-.787-2.123-2.452,0-1.61.824-2.434,1.922-2.434,1.116,0,1.775.732,1.775,2.306Zm1.244-2.287c-.714,0-1.3.6-1.3,1.885v.018l2.452-.366C203.056,346.1,202.6,345.639,201.885,345.639Z" transform="translate(-171.031 -343.15)" fill="#565656"/>
        <path id="Path_27345" data-name="Path 27345" d="M227.044,349.923a2.483,2.483,0,0,1-1.244-.329l.183-.439a1.876,1.876,0,0,0,1.007.256c.622,0,.97-.329.97-.86,0-1.153-2.086-.75-2.086-2.233A1.319,1.319,0,0,1,227.3,345a2.177,2.177,0,0,1,1.171.329l-.183.421a1.721,1.721,0,0,0-.915-.256.775.775,0,0,0-.86.805c0,1.1,2.1.714,2.1,2.233A1.43,1.43,0,0,1,227.044,349.923Z" transform="translate(-192.11 -342.987)" fill="#565656"/>
        <path id="Path_27346" data-name="Path 27346" d="M247.444,349.923a2.483,2.483,0,0,1-1.244-.329l.183-.439a1.876,1.876,0,0,0,1.007.256c.622,0,.97-.329.97-.86,0-1.153-2.086-.75-2.086-2.233A1.319,1.319,0,0,1,247.7,345a2.177,2.177,0,0,1,1.171.329l-.183.421a1.721,1.721,0,0,0-.915-.256.775.775,0,0,0-.86.805c0,1.1,2.1.714,2.1,2.233A1.42,1.42,0,0,1,247.444,349.923Z" transform="translate(-208.776 -342.987)" fill="#565656"/>
        <path id="Path_27347" data-name="Path 27347" d="M283.9,340.844V334h.64v6.844Z" transform="translate(-239.577 -334)" fill="#565656"/>
        <path id="Path_27348" data-name="Path 27348" d="M294.7,337.042a.421.421,0,1,1,.4-.421A.41.41,0,0,1,294.7,337.042Zm-.311,5.6v-4.7h.641v4.7Z" transform="translate(-248.074 -335.797)" fill="#565656"/>
        <path id="Path_27349" data-name="Path 27349" d="M308.335,340.844l-2.013-2.6h0v2.6H305.7V334h.622v4.172h0l1.9-2.031h.732l-1.976,2.031,2.141,2.654h-.787Z" transform="translate(-257.388 -334)" fill="#565656"/>
        <path id="Path_27350" data-name="Path 27350" d="M327.44,347.927c.073,1.1.659,1.647,1.537,1.647a2.774,2.774,0,0,0,1.19-.275l.165.458a2.864,2.864,0,0,1-1.409.329c-1.226,0-2.123-.787-2.123-2.452,0-1.61.824-2.434,1.921-2.434,1.116,0,1.775.732,1.775,2.306Zm1.263-2.287c-.714,0-1.3.6-1.3,1.885v.018l2.452-.366C329.893,346.1,329.4,345.639,328.7,345.639Z" transform="translate(-274.626 -343.15)" fill="#565656"/>
        <path id="Path_27351" data-name="Path 27351" d="M371.927,349.995V346.9c0-.878-.421-1.244-1.171-1.244a2.21,2.21,0,0,0-.915.183v4.154H369.2v-4.465a3.589,3.589,0,0,1,1.556-.329c1.116,0,1.793.512,1.793,1.72v3.093h-.622Z" transform="translate(-309.267 -343.15)" fill="#565656"/>
        <path id="Path_27352" data-name="Path 27352" d="M394.585,350.086c-1.208,0-1.885-1.061-1.885-2.452s.641-2.434,1.885-2.434c1.208,0,1.885,1.043,1.885,2.434C396.452,349.043,395.793,350.086,394.585,350.086Zm0-4.429c-.86,0-1.226.915-1.226,1.976s.366,1.976,1.226,1.976,1.226-.915,1.226-1.976C395.793,346.554,395.445,345.658,394.585,345.658Z" transform="translate(-328.467 -343.15)" fill="#565656"/>
        <path id="Path_27353" data-name="Path 27353" d="M436.285,350.086c-1.208,0-1.885-1.061-1.885-2.452s.64-2.434,1.885-2.434c1.208,0,1.885,1.043,1.885,2.434C438.151,349.043,437.511,350.086,436.285,350.086Zm0-4.429c-.86,0-1.226.915-1.226,1.976s.366,1.976,1.226,1.976,1.226-.915,1.226-1.976C437.511,346.554,437.163,345.658,436.285,345.658Z" transform="translate(-362.536 -343.15)" fill="#565656"/>
        <path id="Path_27354" data-name="Path 27354" d="M459.993,344.694a1.1,1.1,0,0,1-1.153-1.208v-3.129H458.2v-.439h.641v-1.1l.622-.22v1.318h.915v.439h-.915v3.166a.672.672,0,0,0,.677.714.966.966,0,0,0,.22-.018v.439C460.268,344.657,460.14,344.694,459.993,344.694Z" transform="translate(-381.98 -337.758)" fill="#565656"/>
        <path id="Path_27355" data-name="Path 27355" d="M478.145,340.844V337.77c0-.823-.366-1.263-1.1-1.263a2.094,2.094,0,0,0-1.007.238v4.1H475.4V334h.641v2.324a2.243,2.243,0,0,1,1.116-.275c1.025,0,1.61.567,1.61,1.739v3.074l-.622-.018Z" transform="translate(-396.033 -334)" fill="#565656"/>
        <path id="Path_27356" data-name="Path 27356" d="M499.541,347.927c.073,1.1.659,1.647,1.537,1.647a2.774,2.774,0,0,0,1.19-.275l.165.458a2.864,2.864,0,0,1-1.409.329c-1.226,0-2.123-.787-2.123-2.452,0-1.61.824-2.434,1.922-2.434,1.116,0,1.775.732,1.775,2.306Zm1.244-2.287c-.714,0-1.3.6-1.3,1.885v.018l2.452-.366C501.974,346.1,501.5,345.639,500.785,345.639Z" transform="translate(-415.232 -343.15)" fill="#565656"/>
        <path id="Path_27357" data-name="Path 27357" d="M526.922,345.749a2.713,2.713,0,0,0-.567-.055,1.378,1.378,0,0,0-.714.146v4.172H525v-4.484a3.961,3.961,0,0,1,1.739-.329,1.78,1.78,0,0,1,.329.018Z" transform="translate(-436.556 -343.15)" fill="#565656"/>
      </g>
    </g>
  </g>
</svg>
