<svg xmlns="http://www.w3.org/2000/svg" xmlns:xlink="http://www.w3.org/1999/xlink" width="120" height="120" viewBox="0 0 120 120">
  <defs>
    <clipPath id="clip-Slumberland">
      <rect width="120" height="120"/>
    </clipPath>
  </defs>
  <g id="Slumberland" clip-path="url(#clip-Slumberland)">
    <rect width="120" height="120" fill="#fff"/>
    <path id="Path_27305" data-name="Path 27305" d="M60,120A60,60,0,1,0,0,60,60,60,0,0,0,60,120Z" fill="none" stroke="#dedede" stroke-width="1"/>
    <g id="mega_slumberland-logo" transform="translate(-42.293 -136.253)">
      <rect id="Rectangle_7180" data-name="Rectangle 7180" width="87.693" height="36.153" transform="translate(58.8 178.3)" fill="#f0493e"/>
      <g id="Group_53143" data-name="Group 53143" transform="translate(69.595 183.736)">
        <path id="Path_27400" data-name="Path 27400" d="M182.233,212.5a.435.435,0,0,0-.038-.169.579.579,0,0,0-.113-.113l-1.354-.7a.237.237,0,0,0-.207,0,.269.269,0,0,0-.132.188v3.913a4.229,4.229,0,0,0-1.58-1.919c-2.238-1.3-2.408,2.6-2.389,3.8.019,2.107.3,5.022,2.389,6.207a1.224,1.224,0,0,0,1.674-.132v.771a.222.222,0,0,0,.113.188c.508.339.809.508,1.279.79a.234.234,0,0,0,.263,0c.113-.094.094-.169.094-.169V212.486h0Zm-1.843,4.815V222c-.32.489-.715.64-1.016.433-1.129-.771-1.091-2.727-1.072-3.969.019-2.257.263-3.235,1.072-2.746a3.023,3.023,0,0,1,1.016,1.6m-5.135,4.4c.094-.113.094-.169.094-.169v-6.678c.056-1.279-.169-3.028-1.636-3.48a2.014,2.014,0,0,0-2.069.677v-.828a.239.239,0,0,0-.056-.15.356.356,0,0,0-.15-.094,10.022,10.022,0,0,0-1.185-.226.251.251,0,0,0-.169.056.387.387,0,0,0-.094.169v9.311a.216.216,0,0,0,.207.226c.508.056.828.132,1.317.226a.272.272,0,0,0,.207-.056.33.33,0,0,0,.056-.15v-7.242a1.048,1.048,0,0,1,1.166-.489c.376.113.545.546.545,1.336V221.1a.217.217,0,0,0,.169.226c.508.15.846.263,1.336.451a.3.3,0,0,0,.263-.056m-6.4-1.392a.2.2,0,0,0,.038-.15c-.038-.64-.094-1.373-.094-2.238v-4.063a4.366,4.366,0,0,0-.451-2.445,2.538,2.538,0,0,0-2.163-1.147,2.973,2.973,0,0,0-2.9,2.9.234.234,0,0,0,.056.188.18.18,0,0,0,.188.056c.47-.038.809-.056,1.3-.056a.279.279,0,0,0,.169-.056.147.147,0,0,0,.038-.132c.094-.79.47-1.2,1.072-1.2s.865.433.865,1.241v.7c-1.956.64-3.724,1.373-3.894,3.649a2.529,2.529,0,0,0,2.163,2.878,2.129,2.129,0,0,0,1.787-.809c.019.263.038.357.056.546a.226.226,0,0,0,.226.207c.489.019.828.038,1.317.094.056-.094.169-.075.226-.15m-4.1-2.709c.056-.978.621-1.5,2.238-2.22v2.483a1.552,1.552,0,0,1-1.58.809.991.991,0,0,1-.658-1.072m-2.464-10.2a.279.279,0,0,0-.056-.169.362.362,0,0,0-.169-.056c-.508.038-.828.094-1.354.169a.239.239,0,0,0-.15.056.279.279,0,0,0-.056.169v12.941a.279.279,0,0,0,.056.169c.056.094.169.056.188.056.489-.094.828-.132,1.317-.188a.235.235,0,0,0,.169-.094.183.183,0,0,0,.038-.15c.019-4.364.019-8.521.019-12.9m-4.947,13.995a.237.237,0,0,0,.019-.15v-7.035a2.069,2.069,0,0,1,1.486-1.336,1.434,1.434,0,0,1,.621.038.29.29,0,0,0,.207-.038c.094-.094.056-.169.056-.169v-1.655a.279.279,0,0,0-.056-.169c-.056-.094-.188-.056-.188-.056a.414.414,0,0,0-.15.019,3.158,3.158,0,0,0-2.126,1.843v-.865a.237.237,0,0,0-.094-.188.18.18,0,0,0-.188-.056c-.433.094-.752.169-1.185.282a1.118,1.118,0,0,0-.132.056.509.509,0,0,0-.056.15v9.574a.26.26,0,0,0,.094.188.234.234,0,0,0,.188.056c.489-.132.828-.207,1.336-.339.019-.056.113-.056.169-.15m-2.69-4.063a.362.362,0,0,0,.056-.169c.019-.32,0-.6.019-.865.038-1.6-.621-4.4-2.746-3.724-2.314.752-2.9,3.875-2.916,6.189-.019,1.731.47,5.229,2.916,4.4,1.787-.6,2.615-2.558,2.746-4.458a.218.218,0,0,0-.094-.188.18.18,0,0,0-.188-.056c-.47.132-.809.207-1.3.357a.244.244,0,0,0-.132.056.279.279,0,0,0-.056.169c-.038,1.354-.376,2.163-.978,2.332-.677.207-1.072-.752-1.035-2.784v-.132c1.185-.357,2.389-.7,3.593-1.035-.019-.019.075-.038.113-.094m-1.712-1.091c-.79.207-1.185.339-1.956.583.113-1.486.433-2.295,1-2.464.583-.169.959.451.959,1.881m-8.766,9.1a.452.452,0,0,0,.038-.15v-.771a1.313,1.313,0,0,0,1.674.677c2.144-.715,2.389-4.007,2.408-6.076,0-1.411-.132-5.248-2.389-4.59a2.661,2.661,0,0,0-1.6,1.467v-4.27a.246.246,0,0,0-.113-.207c-.113-.094-.188-.038-.188-.038-.489.132-.828.226-1.336.357a.247.247,0,0,0-.188.226v13.6a.359.359,0,0,0,.056.188.291.291,0,0,0,.207.056c.451-.132.771-.226,1.26-.376a.521.521,0,0,0,.169-.094m1.166-1.806c-.282.132-.715-.15-1.035-.809v-5.022c.32-.809.715-1.279,1.035-1.354.809-.226,1.035.865,1.091,3.254.019,1.336,0,3.386-1.091,3.931m-3.875,2.615a.323.323,0,0,0,.038-.15v-7.3c0-2.069-.32-2.991-1.636-2.709-.715.169-1.975,1.768-2.107,1.749,0,0-.489-1.147-1.5-1.091A3.587,3.587,0,0,0,134,218.336v-.809a.359.359,0,0,0-.056-.188.269.269,0,0,0-.169-.094c-.433.038-.715.056-1.166.094a.279.279,0,0,0-.169.056.363.363,0,0,0-.056.169v10.063a.26.26,0,0,0,.094.188.21.21,0,0,0,.169.056,10.7,10.7,0,0,0,1.336-.132.188.188,0,0,0,.15-.094.362.362,0,0,0,.056-.169v-7.863a2.057,2.057,0,0,1,1.336-1.072c.339-.038.546.282.546,1v7.543a.279.279,0,0,0,.056.169c.056.056.132.094.188.056.489-.094.828-.15,1.336-.263a.188.188,0,0,0,.15-.094.2.2,0,0,0,.038-.15v-7.844a2.053,2.053,0,0,1,1.279-1.091c.339-.094.546.207.546.941v7.468a.237.237,0,0,0,.094.188.359.359,0,0,0,.188.056c.508-.132.828-.207,1.336-.339.038.094.132.075.188,0m-10.12-8.577a.26.26,0,0,0-.094-.188.239.239,0,0,0-.15-.056c-.489,0-.828-.019-1.317-.056a.19.19,0,0,0-.169.056.359.359,0,0,0-.056.188v7.919a1.1,1.1,0,0,1-1.3.621c-.357-.113-.715-.489-.715-1.336v-7.562a.279.279,0,0,0-.056-.169.356.356,0,0,0-.15-.094c-.508-.094-.846-.15-1.336-.263a.178.178,0,0,0-.188.056.18.18,0,0,0-.056.188v7.449c0,2.144.64,3.292,1.956,3.461a1.957,1.957,0,0,0,2.013-1.016v.865s0,.263.226.263c.451.019.752.019,1.185.019a.235.235,0,0,0,.226-.263V217.6Zm-6.715,9.405a.291.291,0,0,0,.094-.188v-14.07a.27.27,0,0,0-.169-.263c-.508-.169-.846-.282-1.336-.489a.231.231,0,0,0-.188.019.246.246,0,0,0-.113.207v14.126a.311.311,0,0,0,.15.263c.527.188.846.32,1.354.47,0-.019.094.038.207-.075m-6.753-6.471c.207,1.26.621,2.276,1.3,2.5.7.263,1.166-.263,1.147-1.11-.038-1.956-1.787-3.63-2.615-5.041-.771-1.336-1.674-2.577-1.467-4.59s1.636-2.652,2.953-2.257a4.319,4.319,0,0,1,2.746,3.762c.019.263-.188.282-.188.282-.47.038-.79.094-1.26.132a.284.284,0,0,1-.263-.207c-.169-1.072-.545-1.731-1.11-1.937-.621-.226-1.035.169-1.035,1.072A6.128,6.128,0,0,0,119.5,216.4c1.147,1.674,2.5,3.292,2.615,5.549.132,2.314-1.655,3.649-3.292,3.085-1.618-.583-2.408-2.013-2.633-4.27a.272.272,0,0,1,.056-.207c.056-.094.132-.056.132-.056a8.683,8.683,0,0,0,1.2-.113.2.2,0,0,1,.169.056c.132,0,.132.094.132.094" transform="translate(-116.189 -207.2)" fill="#fff"/>
        <g id="Group_53142" data-name="Group 53142" transform="translate(28.443 20.089)">
          <path id="Path_27401" data-name="Path 27401" d="M269.751,317.7a.974.974,0,0,1-.357.771,1.48,1.48,0,0,1-.978.282,2.358,2.358,0,0,1-1.016-.169v-.433a3.254,3.254,0,0,0,.508.15,2.507,2.507,0,0,0,.527.056,1.06,1.06,0,0,0,.658-.169.533.533,0,0,0,.207-.47.462.462,0,0,0-.094-.32c-.038-.094-.132-.15-.263-.226a4.426,4.426,0,0,0-.546-.226,1.984,1.984,0,0,1-.752-.451.924.924,0,0,1-.207-.658.813.813,0,0,1,.32-.677,1.337,1.337,0,0,1,.846-.263,2.286,2.286,0,0,1,1.016.207l-.132.376a2.268,2.268,0,0,0-.884-.188.765.765,0,0,0-.527.15.473.473,0,0,0-.188.4.811.811,0,0,0,.056.32c.038.094.132.15.226.226a3.523,3.523,0,0,0,.508.226,2.555,2.555,0,0,1,.809.451A.825.825,0,0,1,269.751,317.7Z" transform="translate(-267.4 -314.731)" fill="#fff"/>
          <path id="Path_27402" data-name="Path 27402" d="M284.033,317.969H283.6V314h.433Z" transform="translate(-280.553 -314)" fill="#fff"/>
          <path id="Path_27403" data-name="Path 27403" d="M291.135,322.9a1.318,1.318,0,0,1-.978-.376,1.532,1.532,0,0,1-.357-1.035,1.717,1.717,0,0,1,.339-1.091,1.067,1.067,0,0,1,.884-.4,1.05,1.05,0,0,1,.828.339,1.3,1.3,0,0,1,.3.922v.282h-1.937a1.044,1.044,0,0,0,.263.752.849.849,0,0,0,.658.263,2.077,2.077,0,0,0,.884-.188v.376c-.15.056-.3.113-.433.15A3.529,3.529,0,0,0,291.135,322.9Zm-.113-2.539a.643.643,0,0,0-.527.207.983.983,0,0,0-.226.621h1.467a.977.977,0,0,0-.169-.621A.765.765,0,0,0,291.023,320.357Z" transform="translate(-285.587 -318.871)" fill="#fff"/>
          <path id="Path_27404" data-name="Path 27404" d="M306.736,322.9a1.318,1.318,0,0,1-.978-.376,1.532,1.532,0,0,1-.357-1.035,1.717,1.717,0,0,1,.339-1.091,1.067,1.067,0,0,1,.884-.4,1.05,1.05,0,0,1,.828.339,1.3,1.3,0,0,1,.3.922v.282h-1.919a1.044,1.044,0,0,0,.263.752.849.849,0,0,0,.658.263,2.077,2.077,0,0,0,.884-.188v.376c-.15.056-.3.113-.433.15A3.868,3.868,0,0,0,306.736,322.9Zm-.113-2.539a.644.644,0,0,0-.527.207.983.983,0,0,0-.226.621h1.467a.977.977,0,0,0-.169-.621A.765.765,0,0,0,306.623,320.357Z" transform="translate(-298.252 -318.871)" fill="#fff"/>
          <path id="Path_27405" data-name="Path 27405" d="M323.117,322.653a1.042,1.042,0,0,1-.489-.113.77.77,0,0,1-.376-.32h-.038a4.094,4.094,0,0,1,.019.47v1.147H321.8v-4.063h.339l.056.376h.019a1.067,1.067,0,0,1,.376-.339,1.429,1.429,0,0,1,.489-.113,1.032,1.032,0,0,1,.846.376,1.689,1.689,0,0,1,.3,1.072,1.772,1.772,0,0,1-.3,1.072A.843.843,0,0,1,323.117,322.653Zm-.075-2.539a.854.854,0,0,0-.621.226,1.157,1.157,0,0,0-.188.771v.094a1.408,1.408,0,0,0,.188.846.8.8,0,0,0,1.223-.038,1.426,1.426,0,0,0,.207-.809,1.292,1.292,0,0,0-.207-.809A.716.716,0,0,0,323.041,320.114Z" transform="translate(-311.567 -318.628)" fill="#fff"/>
          <path id="Path_27406" data-name="Path 27406" d="M347.451,317.7a.974.974,0,0,1-.357.771,1.48,1.48,0,0,1-.978.282,2.358,2.358,0,0,1-1.016-.169v-.433a3.254,3.254,0,0,0,.508.15,2.507,2.507,0,0,0,.527.056,1.06,1.06,0,0,0,.658-.169.533.533,0,0,0,.207-.47.462.462,0,0,0-.094-.32c-.038-.094-.15-.15-.263-.226a4.426,4.426,0,0,0-.546-.226,1.984,1.984,0,0,1-.752-.451.924.924,0,0,1-.207-.658.813.813,0,0,1,.32-.677,1.337,1.337,0,0,1,.846-.263,2.286,2.286,0,0,1,1.016.207l-.132.4a2.268,2.268,0,0,0-.884-.188.765.765,0,0,0-.527.15.473.473,0,0,0-.188.4.81.81,0,0,0,.056.32c.038.094.132.15.226.226a3.52,3.52,0,0,0,.508.226,2.555,2.555,0,0,1,.809.451A.761.761,0,0,1,347.451,317.7Z" transform="translate(-330.484 -314.731)" fill="#fff"/>
          <path id="Path_27407" data-name="Path 27407" d="M363.058,321.348a1.593,1.593,0,0,1-.339,1.072,1.183,1.183,0,0,1-.959.376,1.224,1.224,0,0,1-.658-.169,1.318,1.318,0,0,1-.451-.508,1.615,1.615,0,0,1-.15-.771,1.593,1.593,0,0,1,.339-1.072,1.183,1.183,0,0,1,.959-.376,1.291,1.291,0,0,1,.941.376A1.81,1.81,0,0,1,363.058,321.348Zm-2.126,0a1.224,1.224,0,0,0,.207.809.866.866,0,0,0,1.279,0,1.292,1.292,0,0,0,.207-.809,1.258,1.258,0,0,0-.207-.809.866.866,0,0,0-1.279,0A1.426,1.426,0,0,0,360.933,321.348Z" transform="translate(-342.988 -318.79)" fill="#fff"/>
          <path id="Path_27408" data-name="Path 27408" d="M378.433,317.969H378V314h.433Z" transform="translate(-357.196 -314)" fill="#fff"/>
          <path id="Path_27409" data-name="Path 27409" d="M385.414,320.3v1.806a.686.686,0,0,0,.15.508.672.672,0,0,0,.489.169.87.87,0,0,0,.64-.226,1.281,1.281,0,0,0,.207-.79V320.3h.433v2.784h-.339l-.056-.376h-.019a1.179,1.179,0,0,1-.357.32,1.451,1.451,0,0,1-.527.113,1.254,1.254,0,0,1-.771-.226,1.061,1.061,0,0,1-.263-.771v-1.825h.414Z" transform="translate(-362.879 -319.115)" fill="#fff"/>
          <path id="Path_27410" data-name="Path 27410" d="M401.56,319.941a.644.644,0,0,0,.207-.019c.056-.019.132-.019.169-.038v.32a1,1,0,0,1-.207.056,1.078,1.078,0,0,1-.226.019.737.737,0,0,1-.809-.846v-1.655h-.4v-.207l.4-.169.169-.6h.226v.64h.809v.32h-.809V319.4a.46.46,0,0,0,.132.376A.344.344,0,0,0,401.56,319.941Z" transform="translate(-375.301 -316.273)" fill="#fff"/>
          <path id="Path_27411" data-name="Path 27411" d="M411.7,315.063a.272.272,0,0,1,.056-.207.282.282,0,0,1,.339,0,.408.408,0,0,1,0,.414.282.282,0,0,1-.339,0C411.756,315.233,411.7,315.157,411.7,315.063Zm.47,3.555h-.414v-2.784h.433v2.784Z" transform="translate(-384.557 -314.65)" fill="#fff"/>
          <path id="Path_27412" data-name="Path 27412" d="M420.858,321.348a1.593,1.593,0,0,1-.339,1.072,1.183,1.183,0,0,1-.959.376,1.224,1.224,0,0,1-.658-.169,1.318,1.318,0,0,1-.451-.508,1.615,1.615,0,0,1-.15-.771,1.593,1.593,0,0,1,.339-1.072,1.183,1.183,0,0,1,.959-.376,1.291,1.291,0,0,1,.941.376A1.952,1.952,0,0,1,420.858,321.348Zm-2.144,0a1.224,1.224,0,0,0,.207.809.866.866,0,0,0,1.279,0,1.292,1.292,0,0,0,.207-.809,1.257,1.257,0,0,0-.207-.809.764.764,0,0,0-.64-.282.7.7,0,0,0-.621.282A1.292,1.292,0,0,0,418.714,321.348Z" transform="translate(-389.915 -318.79)" fill="#fff"/>
          <path id="Path_27413" data-name="Path 27413" d="M437.719,322.84v-1.806a.686.686,0,0,0-.15-.508.672.672,0,0,0-.489-.169.87.87,0,0,0-.64.226,1.243,1.243,0,0,0-.207.79v1.467H435.8v-2.784h.339l.056.376h.019a1.179,1.179,0,0,1,.357-.32A.987.987,0,0,1,437.1,320a1.254,1.254,0,0,1,.771.226,1.079,1.079,0,0,1,.263.79v1.825Z" transform="translate(-404.124 -318.871)" fill="#fff"/>
          <path id="Path_27414" data-name="Path 27414" d="M453.713,322.069a.707.707,0,0,1-.3.6,1.292,1.292,0,0,1-.809.207,1.861,1.861,0,0,1-.865-.169v-.376a2.958,2.958,0,0,0,.433.169,1.856,1.856,0,0,0,.451.056,1.015,1.015,0,0,0,.508-.113.3.3,0,0,0,.169-.32.333.333,0,0,0-.15-.282,1.993,1.993,0,0,0-.545-.282,2.955,2.955,0,0,1-.546-.263.707.707,0,0,1-.263-.263.583.583,0,0,1-.094-.32.605.605,0,0,1,.282-.527,1.339,1.339,0,0,1,.771-.188,2.077,2.077,0,0,1,.884.188l-.15.339a2.047,2.047,0,0,0-.771-.169.769.769,0,0,0-.451.094.267.267,0,0,0-.15.263.363.363,0,0,0,.056.188.512.512,0,0,0,.188.15c.075.038.263.113.489.207a1.977,1.977,0,0,1,.677.357A.584.584,0,0,1,453.713,322.069Z" transform="translate(-417.033 -318.871)" fill="#fff"/>
        </g>
      </g>
      <path id="_x38__1_" d="M285.954,216.8a1.354,1.354,0,1,0,1.354,1.354A1.361,1.361,0,0,0,285.954,216.8Zm0,2.521a1.147,1.147,0,1,1,1.147-1.147A1.14,1.14,0,0,1,285.954,219.321Zm.376-.978a1.076,1.076,0,0,0-.15-.132.443.443,0,0,0,.282-.132.328.328,0,0,0,.094-.263.447.447,0,0,0-.056-.226.379.379,0,0,0-.169-.132,1.175,1.175,0,0,0-.339-.038h-.6v1.43h.282v-.6h.056a.367.367,0,0,1,.15.019c.019.019.056.019.094.056a1.486,1.486,0,0,1,.15.207l.207.32h.339l-.169-.282C286.425,218.474,286.368,218.38,286.331,218.342Zm-.451-.32h-.207v-.357h.414a.134.134,0,0,1,.113.056.159.159,0,0,1,.038.113c0,.056,0,.094-.019.113a.2.2,0,0,1-.094.056C286.124,218.023,286.03,218.023,285.879,218.023Z" transform="translate(-183.327 -31.258)" fill="#fff"/>
    </g>
  </g>
</svg>
