<svg xmlns="http://www.w3.org/2000/svg" xmlns:xlink="http://www.w3.org/1999/xlink" width="120" height="120" viewBox="0 0 120 120">
  <defs>
    <clipPath id="clip-Jay-Be">
      <rect width="120" height="120"/>
    </clipPath>
  </defs>
  <g id="Jay-Be" clip-path="url(#clip-Jay-Be)">
    <rect width="120" height="120" fill="#fff"/>
    <path id="Path_27305" data-name="Path 27305" d="M60,120A60,60,0,1,0,0,60,60,60,0,0,0,60,120Z" fill="none" stroke="#dedede" stroke-width="1"/>
    <g id="mega_jay-be-logo" transform="translate(-17.305 -127.924)">
      <g id="Group_53192" data-name="Group 53192" transform="translate(39.08 172.436)">
        <path id="Path_27475" data-name="Path 27475" d="M46.735,184.636c0,1.627-.767,2.457-1.987,2.457a3.1,3.1,0,0,1-2.332-1.158.624.624,0,0,0-.892-.016l-2.238,2.1a.62.62,0,0,0-.047.876,7.154,7.154,0,0,0,5.774,2.488,6.079,6.079,0,0,0,6.525-6.729V173.416a.629.629,0,0,0-.563-.626c-.955-.11-1.893-.219-2.832-.344a1.272,1.272,0,0,0-1.44,1.268Z" transform="translate(-39.08 -172.436)" fill="#1a1a1a"/>
        <path id="Path_27476" data-name="Path 27476" d="M217.979,178.927c-.579,1-2.441,4.225-3.161,5.446a.31.31,0,0,1-.548,0l-2.989-5.2a.651.651,0,0,0-.548-.313c-1.283,0-2.582-.016-3.881-.047a.638.638,0,0,0-.563.97l5.571,9.264a1.615,1.615,0,0,1,.235.861v5.461a.635.635,0,0,0,.642.642h3.583a.635.635,0,0,0,.642-.642v-5.539a1.7,1.7,0,0,1,.235-.861l5.868-9.717a.637.637,0,0,0-.61-.97c-.125.016-2.77.266-3.959.344A.634.634,0,0,0,217.979,178.927Z" transform="translate(-180.045 -177.368)" fill="#1a1a1a"/>
        <path id="Path_27477" data-name="Path 27477" d="M127.671,180.531a1.246,1.246,0,0,0-1.111-.767l-1.612-.094c-.36-.016-1-.063-1.549-.094a1.287,1.287,0,0,0-1.267.767l-6.7,15.867a.631.631,0,0,0,.595.876h3.693a.626.626,0,0,0,.595-.407l.97-2.425a.532.532,0,0,1,.485-.329h6.1a.524.524,0,0,1,.485.329l.97,2.425a.626.626,0,0,0,.595.407h3.818a.641.641,0,0,0,.595-.876Zm-4.647,9.2,1.518-3.787a.321.321,0,0,1,.595,0l1.487,3.787a.322.322,0,0,1-.3.438h-3A.325.325,0,0,1,123.023,189.732Z" transform="translate(-103.444 -178.455)" fill="#1a1a1a"/>
        <path id="Path_27478" data-name="Path 27478" d="M289.943,223.715h5.023a.635.635,0,0,0,.642-.642v-2.332a.635.635,0,0,0-.642-.642H291.3a.651.651,0,0,0-.548.313l-1.346,2.332A.637.637,0,0,0,289.943,223.715Z" transform="translate(-250.163 -212.642)" fill="#1a1a1a"/>
        <path id="Path_27479" data-name="Path 27479" d="M335.616,190.514a.635.635,0,0,0,.642.642h8.935c4.428,0,7.026-1.94,7.026-5.117v-.047c0-2.519-1.44-3.787-3.693-4.538a4.283,4.283,0,0,0,2.864-4.131v-.047a4.267,4.267,0,0,0-1.189-3.036,6.374,6.374,0,0,0-4.115-1.612,43.245,43.245,0,0,0-9.248.329,1.356,1.356,0,0,0-1.236,1.33l.016,16.227Zm5.023-13.489a.314.314,0,0,1,.313-.313H344c1.518,0,2.332.563,2.332,1.6v.047c0,1.08-.908,1.612-2.472,1.612h-2.911a.314.314,0,0,1-.313-.313Zm3.912,6.557c1.721,0,2.519.657,2.519,1.674v.047c0,1.08-.876,1.69-2.472,1.69h-3.662a.314.314,0,0,1-.313-.313v-2.785a.314.314,0,0,1,.313-.313Z" transform="translate(-289.2 -172.508)" fill="#1a1a1a"/>
        <path id="Path_27480" data-name="Path 27480" d="M511.4,271.6a1.1,1.1,0,1,0,1.1,1.1A1.1,1.1,0,0,0,511.4,271.6Zm.313,1.784-.3-.438h-.235v.438h-.3v-1.377h.61a.522.522,0,0,1,.422.156.39.39,0,0,1,.11.3v.016a.428.428,0,0,1-.3.423l.329.485Z" transform="translate(-436.563 -256.083)" fill="#1a1a1a"/>
        <path id="Path_27481" data-name="Path 27481" d="M516.2,275.9h-.3v.391h.3c.156,0,.235-.078.235-.188v-.016C516.432,275.978,516.338,275.9,516.2,275.9Z" transform="translate(-441.287 -259.71)" fill="#1a1a1a"/>
        <path id="Path_27482" data-name="Path 27482" d="M460.637,188.187h-7.12a.314.314,0,0,1-.313-.313V185.73a.314.314,0,0,1,.313-.313h3.849a.635.635,0,0,0,.642-.642v-2.566a.635.635,0,0,0-.642-.642h-3.849a.314.314,0,0,1-.313-.313V179.2a.314.314,0,0,1,.313-.313h6.995a.635.635,0,0,0,.642-.642v-3.036a.658.658,0,0,0-.595-.642,100.3,100.3,0,0,0-10.844-.673,1.283,1.283,0,0,0-1.314,1.268v16.493a.635.635,0,0,0,.642.642h11.611a.635.635,0,0,0,.642-.642v-2.848A.655.655,0,0,0,460.637,188.187Zm-1.455,3.443a1.346,1.346,0,1,1,1.346-1.346A1.346,1.346,0,0,1,459.182,191.629Z" transform="translate(-384.349 -173.671)" fill="#1a1a1a"/>
      </g>
      <g id="Group_53193" data-name="Group 53193" transform="translate(58.8 196.638)">
        <path id="Path_27483" data-name="Path 27483" d="M167.15,330.475c1.08.235,1.565.626,1.565,1.377a1.457,1.457,0,0,1-1.643,1.377,2.819,2.819,0,0,1-1.972-.767l.329-.391a2.3,2.3,0,0,0,1.643.689c.657,0,1.08-.329,1.08-.829,0-.454-.25-.7-1.252-.923-1.111-.25-1.612-.595-1.612-1.393a1.419,1.419,0,0,1,1.58-1.314,2.5,2.5,0,0,1,1.69.595l-.313.423a2.142,2.142,0,0,0-1.393-.516c-.626,0-1.033.344-1.033.782C165.835,329.99,166.086,330.24,167.15,330.475Z" transform="translate(-165.1 -328.112)" fill="#1a1a1a" stroke="#1a1a1a" stroke-linejoin="round" stroke-miterlimit="10" stroke-width="1.299"/>
        <path id="Path_27484" data-name="Path 27484" d="M192.3,332.123V327.1h.532v5.023Z" transform="translate(-188.044 -327.1)" fill="#1a1a1a" stroke="#1a1a1a" stroke-linejoin="round" stroke-miterlimit="10" stroke-width="1.299"/>
        <path id="Path_27485" data-name="Path 27485" d="M201.215,339.255a1.46,1.46,0,0,0,1.111-.5l.329.3a1.881,1.881,0,0,1-1.471.673,1.783,1.783,0,0,1-1.784-1.862A1.758,1.758,0,0,1,201.106,336a1.69,1.69,0,0,1,1.659,1.878.587.587,0,0,1-.016.156h-2.817A1.29,1.29,0,0,0,201.215,339.255Zm1.033-1.6a1.153,1.153,0,0,0-1.142-1.2,1.229,1.229,0,0,0-1.158,1.2Z" transform="translate(-194.033 -334.607)" fill="#1a1a1a" stroke="#1a1a1a" stroke-linejoin="round" stroke-miterlimit="10" stroke-width="1.299"/>
        <path id="Path_27486" data-name="Path 27486" d="M226.115,339.255a1.46,1.46,0,0,0,1.111-.5l.329.3a1.881,1.881,0,0,1-1.471.673,1.783,1.783,0,0,1-1.784-1.862A1.758,1.758,0,0,1,226.006,336a1.69,1.69,0,0,1,1.659,1.878.587.587,0,0,1-.016.156h-2.8A1.266,1.266,0,0,0,226.115,339.255Zm1.033-1.6a1.153,1.153,0,0,0-1.142-1.2,1.229,1.229,0,0,0-1.158,1.2Z" transform="translate(-215.036 -334.607)" fill="#1a1a1a" stroke="#1a1a1a" stroke-linejoin="round" stroke-miterlimit="10" stroke-width="1.299"/>
        <path id="Path_27487" data-name="Path 27487" d="M251.593,339.709a1.63,1.63,0,0,1-1.361-.751v1.784H249.7v-4.647h.532v.7a1.6,1.6,0,0,1,1.361-.8,1.862,1.862,0,0,1,0,3.709Zm-.094-3.223a1.38,1.38,0,0,0,0,2.754,1.253,1.253,0,0,0,1.252-1.377A1.279,1.279,0,0,0,251.5,336.485Z" transform="translate(-236.462 -334.607)" fill="#1a1a1a" stroke="#1a1a1a" stroke-linejoin="round" stroke-miterlimit="10" stroke-width="1.299"/>
        <path id="Path_27488" data-name="Path 27488" d="M288.15,330.475c1.08.235,1.565.626,1.565,1.377a1.457,1.457,0,0,1-1.643,1.377,2.819,2.819,0,0,1-1.972-.767l.329-.391a2.3,2.3,0,0,0,1.643.689c.657,0,1.08-.329,1.08-.829,0-.454-.25-.7-1.252-.923-1.111-.25-1.612-.595-1.612-1.393a1.419,1.419,0,0,1,1.58-1.314,2.5,2.5,0,0,1,1.69.595l-.313.423a2.142,2.142,0,0,0-1.393-.516c-.626,0-1.033.344-1.033.782C286.851,329.99,287.1,330.24,288.15,330.475Z" transform="translate(-267.166 -328.112)" fill="#1a1a1a" stroke="#1a1a1a" stroke-linejoin="round" stroke-miterlimit="10" stroke-width="1.299"/>
        <path id="Path_27489" data-name="Path 27489" d="M317.269,335.916a1.27,1.27,0,0,1,1.314,1.44v2.206h-.532V337.48c0-.689-.344-1.08-.923-1.08a.994.994,0,0,0-.986,1.1v2.05h-.516v-2.1c0-.673-.36-1.064-.908-1.064a1.035,1.035,0,0,0-.986,1.111v2.034H313.2v-3.552h.532v.595a1.276,1.276,0,0,1,1.142-.673,1.2,1.2,0,0,1,1.142.7A1.423,1.423,0,0,1,317.269,335.916Z" transform="translate(-290.025 -334.523)" fill="#1a1a1a" stroke="#1a1a1a" stroke-linejoin="round" stroke-miterlimit="10" stroke-width="1.299"/>
        <path id="Path_27490" data-name="Path 27490" d="M351.669,336.935l-.156-.438a2.772,2.772,0,0,1,1.283-.3,1.334,1.334,0,0,1,1.518,1.44v2.175h-.5v-.532a1.541,1.541,0,0,1-1.283.61,1.2,1.2,0,0,1-1.33-1.111c0-.751.626-1.158,1.518-1.158a3.688,3.688,0,0,1,1.1.156v-.125c0-.642-.391-.97-1.064-.97A2.243,2.243,0,0,0,351.669,336.935Zm.063,1.8c0,.454.423.7.892.7a1.068,1.068,0,0,0,1.189-.97v-.344a3.617,3.617,0,0,0-1.048-.156C352.108,338,351.732,338.3,351.732,338.735Z" transform="translate(-322.079 -334.776)" fill="#1a1a1a" stroke="#1a1a1a" stroke-linejoin="round" stroke-miterlimit="10" stroke-width="1.299"/>
        <path id="Path_27491" data-name="Path 27491" d="M375.532,339.706H375v-3.552h.532v.923a1.505,1.505,0,0,1,1.455-.986v.563h-.047a1.44,1.44,0,0,0-1.408,1.627v1.424Z" transform="translate(-342.155 -334.683)" fill="#1a1a1a" stroke="#1a1a1a" stroke-linejoin="round" stroke-miterlimit="10" stroke-width="1.299"/>
        <path id="Path_27492" data-name="Path 27492" d="M392.133,333.315a.529.529,0,0,0,.595.595,1.048,1.048,0,0,0,.516-.125v.454a1.388,1.388,0,0,1-.642.156.905.905,0,0,1-1-1v-2.144h-.5v-.469h.5V329.7h.532v1.08h1.127v.469h-1.127Z" transform="translate(-355.735 -329.293)" fill="#1a1a1a" stroke="#1a1a1a" stroke-linejoin="round" stroke-miterlimit="10" stroke-width="1.299"/>
      </g>
    </g>
  </g>
</svg>
