<svg xmlns="http://www.w3.org/2000/svg" xmlns:xlink="http://www.w3.org/1999/xlink" width="120" height="120" viewBox="0 0 120 120">
  <defs>
    <clipPath id="clip-Bespoke">
      <rect width="120" height="120"/>
    </clipPath>
  </defs>
  <g id="Bespoke" clip-path="url(#clip-Bespoke)">
    <rect width="120" height="120" fill="#fff"/>
    <path id="Path_27305" data-name="Path 27305" d="M60,120A60,60,0,1,0,0,60,60,60,0,0,0,60,120Z" fill="none" stroke="#dedede" stroke-width="1"/>
    <g id="mega_bespoke-logo" transform="translate(-32.469 -143.819)">
      <g id="Group_53200" data-name="Group 53200" transform="translate(46.554 193.2)">
        <path id="Path_27517" data-name="Path 27517" d="M54.62,194.3H59.25a3.175,3.175,0,0,1,2.091.606,1.841,1.841,0,0,1,.723,1.5,1.816,1.816,0,0,1-.508,1.29,3.5,3.5,0,0,1-1.524.84,3.811,3.811,0,0,1,1.876.84,1.865,1.865,0,0,1,.625,1.426,2.023,2.023,0,0,1-.352,1.172,2.653,2.653,0,0,1-1.192.86,4.822,4.822,0,0,1-1.9.352H54.6v-.449h.723a.859.859,0,0,0,.488-.117.333.333,0,0,0,.156-.254v-7.112a.443.443,0,0,0-.156-.371.7.7,0,0,0-.43-.137H54.6V194.3Zm2.638,4.084h1.68a1.733,1.733,0,0,0,1.231-.449,2.019,2.019,0,0,0,.449-1.485,1.986,1.986,0,0,0-.215-1,1.253,1.253,0,0,0-.645-.528,4.239,4.239,0,0,0-1.446-.156,2.54,2.54,0,0,0-.9.1.407.407,0,0,0-.176.371v3.146Zm0,.449v3.419a.418.418,0,0,0,.137.352.806.806,0,0,0,.508.117h1.075a2.32,2.32,0,0,0,1.583-.469,1.929,1.929,0,0,0,.508-1.465,1.826,1.826,0,0,0-1.993-1.973H57.257Z" transform="translate(-54.6 -194.085)" fill="#545759"/>
        <path id="Path_27518" data-name="Path 27518" d="M124.6,194.3h7.034l.176,2.989h-.41a3.835,3.835,0,0,0-.762-1.973,1.784,1.784,0,0,0-1.348-.567H127.55a.385.385,0,0,0-.313.117.478.478,0,0,0-.117.352v3.165h.762a1.248,1.248,0,0,0,1-.43,2.129,2.129,0,0,0,.41-1.348h.41v4.1h-.41a2.341,2.341,0,0,0-.41-1.465,1.329,1.329,0,0,0-1.055-.449h-.684v3.517a.308.308,0,0,0,.137.293.821.821,0,0,0,.43.1h1.368c1.485,0,2.345-.957,2.579-2.853h.43l-.156,3.3H124.62V202.7h.606a.741.741,0,0,0,.488-.117.418.418,0,0,0,.137-.352V195.2a.478.478,0,0,0-.117-.352.55.55,0,0,0-.391-.117h-.723v-.43Z" transform="translate(-110.923 -194.085)" fill="#545759"/>
        <path id="Path_27519" data-name="Path 27519" d="M198.285,194.1l.547-.782h.43l.039,3.224h-.391a4.343,4.343,0,0,0-1.094-2.169,2.4,2.4,0,0,0-1.68-.684,1.805,1.805,0,0,0-1.29.469,1.54,1.54,0,0,0-.508,1.153,1.318,1.318,0,0,0,.2.742,1.482,1.482,0,0,0,.567.528,6.368,6.368,0,0,0,1.426.43,8.4,8.4,0,0,1,2.071.645,2.3,2.3,0,0,1,.9.821,2.27,2.27,0,0,1,.293,1.172,2.71,2.71,0,0,1-.8,1.993,2.861,2.861,0,0,1-2.091.782,3.493,3.493,0,0,1-2.384-.879l-.684.821h-.43v-3.439h.43a3.986,3.986,0,0,0,1.133,2.247,2.833,2.833,0,0,0,1.973.821,2.027,2.027,0,0,0,1.446-.528,1.707,1.707,0,0,0,.567-1.27,1.328,1.328,0,0,0-.215-.742,1.725,1.725,0,0,0-.664-.547,10.2,10.2,0,0,0-1.8-.528,5.525,5.525,0,0,1-2.013-.782,2.078,2.078,0,0,1-.742-1.739,2.544,2.544,0,0,1,2.657-2.657,2.737,2.737,0,0,1,1.055.2A4.722,4.722,0,0,1,198.285,194.1Z" transform="translate(-166.28 -193.2)" fill="#545759"/>
        <path id="Path_27520" data-name="Path 27520" d="M254.8,194.3h4.377a3.375,3.375,0,0,1,2.267.664,2.192,2.192,0,0,1,.782,1.759,1.989,1.989,0,0,1-.723,1.661,3.774,3.774,0,0,1-2.442.782h-1.583v3.029a.5.5,0,0,0,.117.371.652.652,0,0,0,.449.137h1.016v.449H254.8V202.7h.9a.672.672,0,0,0,.391-.1.369.369,0,0,0,.117-.293v-7.073a.485.485,0,0,0-.156-.391,1.009,1.009,0,0,0-.586-.117H254.8v-.43Zm2.677,4.435h1.211a2.353,2.353,0,0,0,1.641-.469,2.1,2.1,0,0,0,.508-1.583,2.392,2.392,0,0,0-.234-1.172,1.43,1.43,0,0,0-.664-.606,3.744,3.744,0,0,0-1.446-.2,1.819,1.819,0,0,0-.84.117.5.5,0,0,0-.176.43Z" transform="translate(-215.682 -194.085)" fill="#545759"/>
        <path id="Path_27521" data-name="Path 27521" d="M325.145,193.4a4.1,4.1,0,0,1,2.11.586,4.17,4.17,0,0,1,1.544,1.641,5.381,5.381,0,0,1-.02,4.768,4.179,4.179,0,0,1-1.524,1.661,3.932,3.932,0,0,1-2.071.606,3.763,3.763,0,0,1-2.013-.586,4.077,4.077,0,0,1-1.5-1.68,5.212,5.212,0,0,1-.567-2.423,4.963,4.963,0,0,1,.547-2.364,4.079,4.079,0,0,1,1.5-1.641A3.958,3.958,0,0,1,325.145,193.4Zm.1.449a2.275,2.275,0,0,0-1.9.977,5.327,5.327,0,0,0-.723,3.165,5.4,5.4,0,0,0,.742,3.283,2.343,2.343,0,0,0,3.185.508,2.682,2.682,0,0,0,.918-1.309,6.628,6.628,0,0,0,.352-2.364,7.515,7.515,0,0,0-.332-2.481,2.744,2.744,0,0,0-.918-1.329A2.18,2.18,0,0,0,325.242,193.849Z" transform="translate(-269.028 -193.361)" fill="#545759"/>
        <path id="Path_27522" data-name="Path 27522" d="M392.6,194.3h4.045v.449h-.86a.6.6,0,0,0-.43.137.5.5,0,0,0-.156.371v4.123l3.341-3.576a.923.923,0,0,0,.293-.586.363.363,0,0,0-.2-.332,1.319,1.319,0,0,0-.645-.137h-.234V194.3h3.634v.449h-.274a1.97,1.97,0,0,0-.8.215,2.633,2.633,0,0,0-.8.606l-2.052,2.149,2.95,4.338a1.882,1.882,0,0,0,.508.528,1.289,1.289,0,0,0,.625.156h.332v.449h-4.006v-.449h.449a1.711,1.711,0,0,0,.664-.078c.117-.059.156-.117.156-.215a.376.376,0,0,0-.078-.234l-2.442-3.6-1.407,1.485v2.188a.343.343,0,0,0,.117.293.721.721,0,0,0,.449.137h.86v.449H392.6v-.449h.782a.726.726,0,0,0,.449-.117.389.389,0,0,0,.137-.313v-7.073a.417.417,0,0,0-.156-.332.989.989,0,0,0-.547-.117H392.6Z" transform="translate(-326.557 -194.085)" fill="#545759"/>
        <path id="Path_27523" data-name="Path 27523" d="M466.5,194.3h7.034l.176,2.989h-.41a3.835,3.835,0,0,0-.762-1.973,1.784,1.784,0,0,0-1.348-.567H469.45a.385.385,0,0,0-.313.117.478.478,0,0,0-.117.352v3.165h.762a1.248,1.248,0,0,0,1-.43,2.128,2.128,0,0,0,.41-1.348h.41v4.1h-.41a2.34,2.34,0,0,0-.41-1.465,1.329,1.329,0,0,0-1.055-.449h-.684v3.517a.308.308,0,0,0,.137.293.821.821,0,0,0,.43.1h1.368c1.485,0,2.345-.957,2.579-2.853h.43l-.156,3.3H466.52V202.7h.606a.741.741,0,0,0,.488-.117.418.418,0,0,0,.137-.352V195.2a.478.478,0,0,0-.117-.352.55.55,0,0,0-.391-.117h-.723v-.43Z" transform="translate(-386.018 -194.085)" fill="#545759"/>
      </g>
      <g id="Group_53204" data-name="Group 53204" transform="translate(104.077 218.327)">
        <g id="Group_53202" data-name="Group 53202" transform="translate(6.565 0)">
          <g id="Group_53201" data-name="Group 53201">
            <path id="Path_27524" data-name="Path 27524" d="M383.01,322.679c0-.528.469-.645.879-.606a1.443,1.443,0,0,1,.938,1.114h.156v-1.348h-.176l-.2.332a1.767,1.767,0,0,0-.84-.371,1.1,1.1,0,0,0-1.153,1.114,1.056,1.056,0,0,0,.293.684,1.723,1.723,0,0,0,.664.293c.41.117,1.251.176,1.231.782a.7.7,0,0,1-.7.645h-.1a1.43,1.43,0,0,1-1.231-1.211H382.6v1.426h.117c.059,0,.274-.293.313-.352a1.639,1.639,0,0,0,.918.371h.137a1.124,1.124,0,0,0,1.133-1.055,1.018,1.018,0,0,0-.313-.8,1.963,1.963,0,0,0-.645-.293c-.43-.117-1.25-.117-1.25-.723" transform="translate(-382.6 -321.8)" fill="#545759" fill-rule="evenodd"/>
            <path id="Path_27525" data-name="Path 27525" d="M486.11,322.679c0-.528.469-.645.879-.606a1.443,1.443,0,0,1,.938,1.114h.156v-1.348h-.176l-.2.332a1.766,1.766,0,0,0-.84-.371,1.1,1.1,0,0,0-1.153,1.114,1.056,1.056,0,0,0,.293.684,1.722,1.722,0,0,0,.664.293c.41.117,1.251.176,1.231.782a.7.7,0,0,1-.7.645h-.1a1.43,1.43,0,0,1-1.231-1.211H485.7v1.426h.117c.059,0,.274-.293.313-.352a1.639,1.639,0,0,0,.918.371h.137a1.124,1.124,0,0,0,1.133-1.055,1.018,1.018,0,0,0-.313-.8,1.963,1.963,0,0,0-.645-.293c-.43-.117-1.251-.117-1.251-.723" transform="translate(-465.555 -321.8)" fill="#545759" fill-rule="evenodd"/>
            <path id="Path_27526" data-name="Path 27526" d="M414.6,324.926a2.13,2.13,0,0,1,.1-.332c.02-.059.078-.274.156-.274h1.329l.293.8c0,.1-.215.156-.313.156h-.176v.215h1.485v-.215H417.3c-.254,0-.41-.567-.488-.782l-1.055-2.7h-.2l-.742,1.837c-.117.313-.234.606-.371.918-.1.254-.234.723-.567.723H413.8v.215h1.348v-.215h-.215c-.137,0-.332-.137-.332-.274Zm.9-2.306.567,1.446h-1.153Z" transform="translate(-407.704 -321.8)" fill="#545759" fill-rule="evenodd"/>
            <path id="Path_27527" data-name="Path 27527" d="M468.673,322.454a.674.674,0,0,1,.547.332,1.774,1.774,0,0,1,.215.664h.2l-.02-.371-.039-.879H466.7v.215h.352c.1,0,.156.039.156.137v2.892c0,.078-.156.156-.254.156H466.7v.215h2.99l.039-1.387h-.2c0,.059-.02.078-.02.137a1.53,1.53,0,0,1-.274.684.8.8,0,0,1-.645.313h-.7c-.1,0-.137-.039-.137-.137v-1.368h.293a.581.581,0,0,1,.508.645v.117h.234v-1.7h-.234l-.02.234a.518.518,0,0,1-.528.488h-.254v-1.251c0-.059.039-.137.1-.137Z" transform="translate(-450.267 -322.122)" fill="#545759" fill-rule="evenodd"/>
            <path id="Path_27528" data-name="Path 27528" d="M398.877,322.376h.176c.059,0,.117.078.117.156v2.931c0,.1-.039.137-.137.137h-.449v.215H400.3V325.6h-.43c-.078,0-.156-.059-.156-.117v-2.911c0-.1.039-.2.117-.2h.2a.744.744,0,0,1,.488.332,1.739,1.739,0,0,1,.274.9h.176l-.059-1.407h-2.931l-.078,1.407h.176a2.205,2.205,0,0,1,.313-.86.672.672,0,0,1,.488-.371" transform="translate(-394.911 -322.122)" fill="#545759" fill-rule="evenodd"/>
            <path id="Path_27529" data-name="Path 27529" d="M435.778,324.213c.645,0,1.25-.352,1.25-1v-.02a.984.984,0,0,0-1-.977l-.274-.02H434v.215h.293c.117,0,.254.059.254.176v2.853a.258.258,0,0,1-.176.2H434v.176h1.759v-.176h-.43a.311.311,0,0,1-.2-.215v-1.211Zm-.645-1.661c0-.156.156-.156.293-.156h.117c.528,0,.86.2.86.723v.156a.7.7,0,0,1-.762.723h-.508Z" transform="translate(-423.957 -322.122)" fill="#545759" fill-rule="evenodd"/>
            <path id="Path_27530" data-name="Path 27530" d="M451.868,325.6c-.1,0-.234-.059-.234-.137V322.63c0-.1.059-.215.137-.215h.43V322.2h-1.7v.215h.371a.21.21,0,0,1,.2.2v2.736a.252.252,0,0,1-.274.254H450.5v.215h2.853a.052.052,0,0,0,.059-.059l.059-1.368h-.2c-.02.469-.41,1.133-.84,1.192l-.2.02Z" transform="translate(-437.233 -322.122)" fill="#545759" fill-rule="evenodd"/>
          </g>
        </g>
        <g id="Group_53203" data-name="Group 53203" transform="translate(0 0.567)">
          <path id="Path_27531" data-name="Path 27531" d="M349.762,324.7v1.485a.91.91,0,0,1,.274-.274.642.642,0,0,1,.332-.078.761.761,0,0,1,.586.274,1.072,1.072,0,0,1,.234.723,1.109,1.109,0,0,1-.254.782.835.835,0,0,1-.645.293.642.642,0,0,1-.332-.078,1.112,1.112,0,0,1-.313-.254,1.443,1.443,0,0,1-.234.313l-.078-.039a2.129,2.129,0,0,0,.059-.508v-2.247a.159.159,0,0,0-.078-.156.351.351,0,0,0-.215-.059H349v-.156Zm.528,1.329a.475.475,0,0,0-.391.215,1.215,1.215,0,0,0-.156.684,1.143,1.143,0,0,0,.156.664.456.456,0,0,0,.391.2.414.414,0,0,0,.352-.2,1.175,1.175,0,0,0,.156-.7,1.131,1.131,0,0,0-.137-.645A.4.4,0,0,0,350.29,326.029Z" transform="translate(-349 -324.7)" fill="#545759"/>
          <path id="Path_27532" data-name="Path 27532" d="M361.739,330.8h.957v.137h-.1a.391.391,0,0,0-.176.039c-.039.02-.039.059-.039.1a.072.072,0,0,0,.02.059l.547,1.192.41-1a.421.421,0,0,0,.039-.215.118.118,0,0,0-.059-.117.959.959,0,0,0-.254-.059V330.8h.821v.137a.373.373,0,0,0-.332.215l-.742,1.719a1.8,1.8,0,0,1-.371.606.6.6,0,0,1-.41.156.36.36,0,0,1-.254-.078.314.314,0,0,1-.1-.215.2.2,0,0,1,.215-.215.2.2,0,0,1,.2.2v.1a.052.052,0,0,0,.059.059.311.311,0,0,0,.156-.059.593.593,0,0,0,.156-.156,4.318,4.318,0,0,0,.274-.508l-.762-1.622a.2.2,0,0,0-.1-.117.9.9,0,0,0-.176-.059V330.8Z" transform="translate(-359.219 -329.608)" fill="#545759"/>
        </g>
      </g>
      <g id="Group_53205" data-name="Group 53205" transform="translate(80.708 210.648)">
        <path id="Path_27533" data-name="Path 27533" d="M233.562,286.134v.723a3.389,3.389,0,0,1-1.68.391,2.5,2.5,0,0,1-1.309-.313,2.416,2.416,0,0,1-.86-.86,2.313,2.313,0,0,1-.313-1.192,2.261,2.261,0,0,1,.723-1.7,2.446,2.446,0,0,1,1.778-.684,4.571,4.571,0,0,1,1.622.371v.7a3.191,3.191,0,0,0-1.583-.469,1.877,1.877,0,0,0-1.329.508,1.668,1.668,0,0,0-.528,1.251,1.693,1.693,0,0,0,.508,1.25,1.831,1.831,0,0,0,1.329.488A2.47,2.47,0,0,0,233.562,286.134Z" transform="translate(-229.4 -282.5)" fill="#545759"/>
        <path id="Path_27534" data-name="Path 27534" d="M263.281,282.6a2.463,2.463,0,0,1,1.778.684,2.271,2.271,0,0,1,.723,1.7,2.2,2.2,0,0,1-.723,1.7,2.576,2.576,0,0,1-1.817.664,2.387,2.387,0,0,1-1.739-.664,2.242,2.242,0,0,1-.7-1.68,2.3,2.3,0,0,1,.7-1.719A2.463,2.463,0,0,1,263.281,282.6Zm.02.625a1.815,1.815,0,0,0-1.309.488,1.664,1.664,0,0,0-.508,1.27,1.694,1.694,0,0,0,.508,1.251,1.738,1.738,0,0,0,1.29.488,1.816,1.816,0,0,0,1.29-.508,1.68,1.68,0,0,0,.528-1.27,1.625,1.625,0,0,0-.528-1.231A1.839,1.839,0,0,0,263.3,283.225Z" transform="translate(-254.665 -282.58)" fill="#545759"/>
        <path id="Path_27535" data-name="Path 27535" d="M297.4,283h.664v4.025h2.091v.606H297.4Z" transform="translate(-284.113 -282.902)" fill="#545759"/>
        <path id="Path_27536" data-name="Path 27536" d="M321.3,283h.664v4.025h2.091v.606H321.3Z" transform="translate(-303.343 -282.902)" fill="#545759"/>
        <path id="Path_27537" data-name="Path 27537" d="M345.3,283h2.618v.586h-1.954v1.407h1.9v.586h-1.9v1.446h2.013v.586H345.3Z" transform="translate(-322.654 -282.902)" fill="#545759"/>
        <path id="Path_27538" data-name="Path 27538" d="M372.862,286.134v.723a3.389,3.389,0,0,1-1.68.391,2.5,2.5,0,0,1-1.309-.313,2.417,2.417,0,0,1-.86-.86,2.314,2.314,0,0,1-.313-1.192,2.261,2.261,0,0,1,.723-1.7,2.446,2.446,0,0,1,1.778-.684,4.571,4.571,0,0,1,1.622.371v.7a3.191,3.191,0,0,0-1.583-.469,1.877,1.877,0,0,0-1.329.508,1.668,1.668,0,0,0-.528,1.251,1.694,1.694,0,0,0,.508,1.25,1.831,1.831,0,0,0,1.329.488A2.53,2.53,0,0,0,372.862,286.134Z" transform="translate(-341.482 -282.5)" fill="#545759"/>
        <path id="Path_27539" data-name="Path 27539" d="M399.1,282.9h3.869v.586h-1.622v4.045h-.664v-4.045H399.1Z" transform="translate(-365.942 -282.822)" fill="#545759"/>
        <path id="Path_27540" data-name="Path 27540" d="M429,283h.664v4.631H429Z" transform="translate(-390 -282.902)" fill="#545759"/>
        <path id="Path_27541" data-name="Path 27541" d="M445.981,282.6a2.463,2.463,0,0,1,1.778.684,2.271,2.271,0,0,1,.723,1.7,2.2,2.2,0,0,1-.723,1.7,2.576,2.576,0,0,1-1.817.664,2.388,2.388,0,0,1-1.739-.664,2.242,2.242,0,0,1-.7-1.68,2.3,2.3,0,0,1,.7-1.719A2.529,2.529,0,0,1,445.981,282.6Zm.039.625a1.815,1.815,0,0,0-1.309.488,1.738,1.738,0,0,0-.508,1.27,1.694,1.694,0,0,0,.508,1.251,1.738,1.738,0,0,0,1.29.488,1.816,1.816,0,0,0,1.29-.508,1.68,1.68,0,0,0,.528-1.27,1.626,1.626,0,0,0-.528-1.231A1.839,1.839,0,0,0,446.021,283.225Z" transform="translate(-401.667 -282.58)" fill="#545759"/>
        <path id="Path_27542" data-name="Path 27542" d="M483.954,283h.625v4.631h-.567l-3.087-3.556v3.556H480.3V283h.528l3.126,3.6Z" transform="translate(-431.276 -282.902)" fill="#545759"/>
      </g>
      <g id="Group_53206" data-name="Group 53206" transform="translate(44.6 206.438)">
        <path id="Path_27543" data-name="Path 27543" d="M44.6,263.792s47.812-3.361,95.469-2.775" transform="translate(-44.6 -260.949)" fill="#545759"/>
      </g>
      <path id="Path_27544" data-name="Path 27544" d="M499.8,322.1a.576.576,0,0,0-.586.586.592.592,0,0,0,.586.606.626.626,0,0,0,.606-.625.646.646,0,0,0-.606-.567m0,.215a.215.215,0,0,1,.254.215.187.187,0,0,1-.117.2l.117.313h-.117l-.117-.293h-.176v.293h-.117v-.723Zm.664.391v-.039h0a.684.684,0,0,0-1.368.02.684.684,0,1,0,1.368.02m-.821-.078h.156c.039,0,.156,0,.156-.117,0-.078-.078-.1-.137-.1h-.176Z" transform="translate(-365.694 -103.633)" fill="#545759" fill-rule="evenodd"/>
    </g>
  </g>
</svg>
