<svg id="Group_4" data-name="Group 4" xmlns="http://www.w3.org/2000/svg" width="120" height="120" viewBox="0 0 120 120">
  <g id="Ellipse_1" data-name="Ellipse 1" fill="#fff" stroke="#dedede" stroke-width="1">
    <circle cx="60" cy="60" r="60" stroke="none"/>
    <circle cx="60" cy="60" r="59.5" fill="none"/>
  </g>
  <g id="Group_3" data-name="Group 3" transform="translate(-289.626 -157.795)">
    <g id="Group_1" data-name="Group 1" transform="translate(315.626 183.795)">
      <path id="Path_1" data-name="Path 1" d="M384.626,233.761a4.3,4.3,0,0,0-.634-2.714,4.445,4.445,0,0,0-3.306-1.218c-1.367-.072-2.711-.04-4.077-.192a57,57,0,0,1-9.451-1.882q-2.172-.624-4.292-1.413a16.369,16.369,0,0,1-2.895-1.311,9.406,9.406,0,0,1-1.242-.895c-.123-.106-.92-1.05-.994-1.037a24.982,24.982,0,0,0,14.362-8.34c.273-.316.53-.646.781-.979,3.485-4.653,3.328-11.5,1.233-16.724a19.115,19.115,0,0,0-7.029-8.492,23.567,23.567,0,0,0-2.432-1.465c-7.283-3.818-16-4.135-23.828-1.938a38.54,38.54,0,0,0-10.874,5.025c-16.15,10.736-19.364,33.755-5.935,48.059a37.909,37.909,0,0,0,6.334,5.374,45.518,45.518,0,0,0,7.559,4.125,50.2,50.2,0,0,0,8.8,2.854,54.124,54.124,0,0,0,9.394,1.281,67.77,67.77,0,0,0,7.987,0c2.535-.18,5.784-.192,5.953-3.476a10.607,10.607,0,0,0-.213-3.722,2.634,2.634,0,0,0-2.324-1.705c-2.616-.357-5.261-.235-7.884-.5-2.712-.278-5.457-.6-8.134-1.126a41.927,41.927,0,0,1-8.6-2.652,32.8,32.8,0,0,1-6.354-3.582,25.756,25.756,0,0,1-5.212-5.033,24.5,24.5,0,0,1-3.375-5.95,21.11,21.11,0,0,1,.9-17.334,24.541,24.541,0,0,1,11.474-10.787c7.453-3.475,20.56-4.1,23.525,5.748.015.05.029.1.044.15a9.088,9.088,0,0,1-1.172,7.507,12.06,12.06,0,0,1-6.292,4.519c-3.079,1.042-6.276,1.058-9.481,1.32a2.377,2.377,0,0,0-1.065.219l-.055.036c-.447.31-.361.823-.341,1.3a23.84,23.84,0,0,0,1.313,7.405,17.446,17.446,0,0,0,4.091,6.3,20.436,20.436,0,0,0,2.366,2,32.4,32.4,0,0,0,11.329,5.149,39.777,39.777,0,0,0,7.792,1.067c2.194.09,4.458.17,6.678.071,1.64-.073,4.34.077,5.166-1.729a5.978,5.978,0,0,0,.394-2.414C384.615,234.384,384.625,234.078,384.626,233.761Z" transform="translate(-315.626 -183.795)" fill="#447fc1"/>
    </g>
    <g id="Group_2" data-name="Group 2" transform="translate(374.92 246.851)">
      <path id="Path_2" data-name="Path 2" d="M492.425,368.582h-1.416v4.274h-1.03v-4.274h-1.416v-.875h3.862Zm5.845,4.274h-.979v-3.437l-1.622,2.742-1.558-2.768v3.463h-.979v-5.149h1.159l1.39,2.5,1.467-2.5h1.12Z" transform="translate(-488.563 -367.707)" fill="#447fc1"/>
    </g>
  </g>
</svg>
