<svg xmlns="http://www.w3.org/2000/svg" xmlns:xlink="http://www.w3.org/1999/xlink" width="120" height="120" viewBox="0 0 120 120">
  <defs>
    <clipPath id="clip-path">
      <rect id="Rectangle_7" data-name="Rectangle 7" width="90.292" height="48.834"/>
    </clipPath>
    <clipPath id="clip-Naturals">
      <rect width="120" height="120"/>
    </clipPath>
  </defs>
  <g id="Naturals" clip-path="url(#clip-Naturals)">
    <g id="Ellipse_1" data-name="Ellipse 1" fill="#fff" stroke="#dedede" stroke-width="1">
      <circle cx="60" cy="60" r="60" stroke="none"/>
      <circle cx="60" cy="60" r="59.5" fill="none"/>
    </g>
    <g id="Naturals_logo" data-name="Naturals logo" transform="translate(14.854 35.583)" clip-path="url(#clip-path)">
      <g id="Group_82604" data-name="Group 82604" transform="translate(0 0.002)">
        <g id="Group_82598" data-name="Group 82598" transform="translate(0 0)">
          <path id="Path_48219" data-name="Path 48219" d="M447.8,552.513a10.554,10.554,0,1,0,10.554,10.554A10.554,10.554,0,0,0,447.8,552.513m0,21.917a11.362,11.362,0,1,1,8.035-3.328,11.362,11.362,0,0,1-8.035,3.328" transform="translate(-402.656 -551.705)" fill="#415054"/>
          <path id="Path_48220" data-name="Path 48220" d="M452.426,566.611a4.152,4.152,0,0,0,.309-1.261l.03-.344-.336-.083a3.974,3.974,0,0,0-3.282.593c-.071.05-.14.1-.206.159a3.981,3.981,0,0,0-1.425-2.868l-.262-.224-.263.224a3.976,3.976,0,0,0-1.425,2.881c-.071-.06-.145-.117-.22-.171a3.974,3.974,0,0,0-3.282-.592l-.336.083.03.344a4.141,4.141,0,0,0,.3,1.247,3.507,3.507,0,0,1,1.323-6.61l.362-.034.006-.361a3.507,3.507,0,1,1,7.013,0l.007.366.364.03a3.506,3.506,0,0,1,1.29,6.624m-1.783,1a3.066,3.066,0,1,1,1.237-1.967,3.081,3.081,0,0,1-1.237,1.967m-3.388.363a3.066,3.066,0,0,1,0-4.3,3.066,3.066,0,0,1,0,4.3m-3.4-.365a3.066,3.066,0,1,1,2.261.535,3.083,3.083,0,0,1-2.261-.535m11.31-4.123a6.463,6.463,0,0,0-12.2-4.255,4.315,4.315,0,0,0-.211,8.471,3.7,3.7,0,0,0,.628.565,3.893,3.893,0,0,0,2.271.717,4.159,4.159,0,0,0,1.011-.126l.192-.047v4.567h.809v-4.56l.168.042a4.156,4.156,0,0,0,1.011.126,3.893,3.893,0,0,0,2.271-.717,3.773,3.773,0,0,0,.622-.558,4.325,4.325,0,0,0,3.424-4.225" transform="translate(-402.114 -551.037)" fill="#415054"/>
          <path id="Path_48221" data-name="Path 48221" d="M407.93,586.062V575.149h1.5l2.36,6.575h.03v-6.575h1.563v10.913h-1.472l-2.39-6.56h-.03v6.56Z" transform="translate(-407.93 -547.361)" fill="#959b7c"/>
          <path id="Path_48222" data-name="Path 48222" d="M422.163,582.246l-.767-3.955h-.03l-.766,3.955Zm-3.863,3.816,2.437-10.913h1.3l2.437,10.913h-1.563l-.46-2.345h-2.131l-.46,2.345Z" transform="translate(-406.009 -547.361)" fill="#959b7c"/>
          <path id="Path_48223" data-name="Path 48223" d="M429.772,586.061v-9.442h-1.809v-1.472h5.18v1.472h-1.809v9.442Z" transform="translate(-404.221 -547.359)" fill="#959b7c"/>
          <path id="Path_48224" data-name="Path 48224" d="M443.147,575.149v8.461a2.5,2.5,0,0,1-.193.988,2.527,2.527,0,0,1-.543.8,2.6,2.6,0,0,1-.813.551,2.436,2.436,0,0,1-.98.2,2.393,2.393,0,0,1-.974-.2,2.664,2.664,0,0,1-1.356-1.356,2.424,2.424,0,0,1-.2-.988v-8.461h1.563v8.306a1.173,1.173,0,0,0,.276.859,1,1,0,0,0,1.38,0,1.173,1.173,0,0,0,.276-.859v-8.306Z" transform="translate(-402.346 -547.361)" fill="#959b7c"/>
          <path id="Path_48225" data-name="Path 48225" d="M450.331,576.621v3.4h.889a1.584,1.584,0,0,0,.659-.115.908.908,0,0,0,.384-.329,1.507,1.507,0,0,0,.168-.53,5.753,5.753,0,0,0,0-1.455,1.467,1.467,0,0,0-.184-.544,1.24,1.24,0,0,0-1.1-.429Zm-1.563,9.442V575.149h2.514q2.759,0,2.759,3.2a4.044,4.044,0,0,1-.3,1.64,2.328,2.328,0,0,1-1.05,1.088l1.685,4.981h-1.654l-1.457-4.661h-.935v4.661Z" transform="translate(-400.366 -547.361)" fill="#959b7c"/>
          <path id="Path_48226" data-name="Path 48226" d="M462.72,582.245l-.767-3.955h-.03l-.767,3.955Zm-3.862,3.816,2.437-10.913h1.3l2.437,10.913h-1.563l-.46-2.345h-2.131l-.46,2.345Z" transform="translate(-398.5 -547.36)" fill="#959b7c"/>
          <path id="Path_48227" data-name="Path 48227" d="M469.89,586.062V575.149h1.563v9.35h3.1v1.563Z" transform="translate(-396.458 -547.361)" fill="#959b7c"/>
          <path id="Path_48228" data-name="Path 48228" d="M484.956,578.3h-1.563v-.352a1.673,1.673,0,0,0-.252-.928.937.937,0,0,0-.851-.391.984.984,0,0,0-.521.123,1.032,1.032,0,0,0-.322.306,1.312,1.312,0,0,0-.168.453,2.932,2.932,0,0,0-.046.529,5.146,5.146,0,0,0,.024.538,1.011,1.011,0,0,0,.115.383.843.843,0,0,0,.269.292,2.466,2.466,0,0,0,.482.245l1.2.475a2.981,2.981,0,0,1,.844.467,2.017,2.017,0,0,1,.5.621,2.883,2.883,0,0,1,.23.837,8.139,8.139,0,0,1,.062,1.064,5.65,5.65,0,0,1-.137,1.28,2.7,2.7,0,0,1-.444,1,2.192,2.192,0,0,1-.844.674,2.974,2.974,0,0,1-1.272.245,2.78,2.78,0,0,1-1.057-.2,2.5,2.5,0,0,1-.844-.551,2.716,2.716,0,0,1-.559-.82,2.5,2.5,0,0,1-.206-1.019v-.583h1.563v.491a1.277,1.277,0,0,0,.253.774.986.986,0,0,0,.851.345,1.365,1.365,0,0,0,.621-.115.817.817,0,0,0,.345-.329,1.206,1.206,0,0,0,.145-.513q.023-.3.024-.667a6.706,6.706,0,0,0-.03-.705,1.228,1.228,0,0,0-.122-.444.875.875,0,0,0-.284-.275,3.5,3.5,0,0,0-.467-.23l-1.119-.46a2.48,2.48,0,0,1-1.358-1.1,3.765,3.765,0,0,1-.345-1.709,3.964,3.964,0,0,1,.169-1.165,2.658,2.658,0,0,1,.5-.95,2.311,2.311,0,0,1,.82-.635,2.733,2.733,0,0,1,1.189-.239,2.6,2.6,0,0,1,1.064.214,2.75,2.75,0,0,1,.837.568,2.366,2.366,0,0,1,.705,1.685Z" transform="translate(-394.664 -547.37)" fill="#959b7c"/>
          <rect id="Rectangle_8812" data-name="Rectangle 8812" width="0.382" height="3.775" transform="translate(12.292 45.017)" fill="#415054"/>
          <path id="Path_48229" data-name="Path 48229" d="M420.1,589.686h.392l2.011,3.063v-3.063h.382v3.775H422.5l-2.015-3.062v3.062H420.1Z" transform="translate(-405.674 -544.669)" fill="#415054"/>
          <path id="Path_48230" data-name="Path 48230" d="M423.866,590.577c0-.747.443-.917,1.022-.917.272,0,1.093.1,1.288.123v.309c-.329-.02-1.288-.051-1.288-.051-.362-.016-.64.02-.64.536v.34c0,.469.217.506.526.506h.732c.685,0,.8.463.8.886v.35c0,.732-.531.845-1.041.845-.254,0-1.052-.088-1.289-.128v-.309c.206.02.809.056,1.289.056.211,0,.66-.01.66-.463v-.351c0-.294-.088-.5-.423-.5h-.721c-.826,0-.918-.454-.918-.888Z" transform="translate(-404.98 -544.674)" fill="#415054"/>
          <path id="Path_48231" data-name="Path 48231" d="M428.806,591.544c.269,0,.515-.077.515-.763s-.336-.706-.515-.706h-1.171v1.469Zm-1.554-1.856h1.554c.408,0,.9.171.9,1.093,0,1.079-.52,1.145-.9,1.145-.206,0-1.145-.088-1.171-.1v1.64h-.382Z" transform="translate(-404.349 -544.67)" fill="#415054"/>
          <rect id="Rectangle_8813" data-name="Rectangle 8813" width="0.38" height="3.775" transform="translate(27.034 45.017)" fill="#415054"/>
          <path id="Path_48232" data-name="Path 48232" d="M434.063,591.507c.239,0,.486,0,.486-.687s-.258-.747-.486-.747h-1.227v1.434Zm-1.608-1.821h1.608c.491,0,.872.279.872,1.135,0,.98-.511,1.063-.656,1.083l.794,1.557h-.412l-.794-1.542-1.031-.072v1.614h-.382Z" transform="translate(-403.39 -544.669)" fill="#415054"/>
          <path id="Path_48233" data-name="Path 48233" d="M435.977,590.349a.587.587,0,0,1,.65-.671l1.63.083v.3h-1.63c-.269,0-.269.149-.269.289v1.031l1.691.052v.3l-1.691.052v1.031c0,.274.171.269.32.269h1.577v.294l-1.577.088c-.34.021-.7-.066-.7-.65Z" transform="translate(-402.719 -544.661)" fill="#415054"/>
          <path id="Path_48234" data-name="Path 48234" d="M440.729,593.067c.68,0,.959-.687.959-1.48,0-1.1-.362-1.516-.959-1.516h-1.022v3Zm-1.4-3.376h1.4c1.16,0,1.34,1.129,1.34,1.9,0,.857-.346,1.873-1.34,1.873h-1.4Z" transform="translate(-402.114 -544.672)" fill="#415054"/>
          <path id="Path_48235" data-name="Path 48235" d="M446.469,593.073c.248,0,.618-.068.618-.68,0-.382-.185-.722-.618-.722H445.4v1.4Zm0-1.785a.547.547,0,0,0,.6-.628.536.536,0,0,0-.6-.6H445.4v1.227Zm-1.454-1.608h1.454a.918.918,0,0,1,.98.98c0,.382-.109.722-.475.834.228.052.5.32.5.908a.922.922,0,0,1-1,1.052h-1.454Z" transform="translate(-401.063 -544.663)" fill="#415054"/>
          <path id="Path_48236" data-name="Path 48236" d="M448.746,589.686l.974,1.98,1.079-1.98h.418l-1.3,2.434v1.34h-.382v-1.34l-1.2-2.434Z" transform="translate(-400.453 -544.669)" fill="#415054"/>
          <path id="Path_48237" data-name="Path 48237" d="M454.047,589.686h.392l2.011,3.063v-3.063h.382v3.775h-.382l-2.017-3.062v3.062h-.386Z" transform="translate(-399.392 -544.669)" fill="#415054"/>
          <path id="Path_48238" data-name="Path 48238" d="M459.9,592.027l-.608-1.758-.625,1.758Zm-.794-2.341h.382l1.325,3.775h-.454l-.325-1.051h-1.505l-.34,1.052h-.469Z" transform="translate(-398.711 -544.669)" fill="#415054"/>
          <path id="Path_48239" data-name="Path 48239" d="M461.092,589.686h2.619v.382h-1.135v3.393h-.382v-3.393h-1.1Z" transform="translate(-398.083 -544.669)" fill="#415054"/>
          <path id="Path_48240" data-name="Path 48240" d="M464.632,589.686h.382v2.126c0,1.325.412,1.294,1.016,1.294.511,0,.986-.01.986-1.294v-2.125h.388v2.125c0,1.665-.747,1.676-1.372,1.676-.7,0-1.4.042-1.4-1.676Z" transform="translate(-397.432 -544.669)" fill="#415054"/>
          <path id="Path_48241" data-name="Path 48241" d="M469.968,591.507c.239,0,.486,0,.486-.687s-.258-.747-.486-.747h-1.227v1.434Zm-1.608-1.821h1.608c.491,0,.872.279.872,1.135,0,.98-.511,1.063-.656,1.083l.794,1.557h-.412l-.794-1.542-1.031-.072v1.614h-.382Z" transform="translate(-396.741 -544.669)" fill="#415054"/>
          <path id="Path_48242" data-name="Path 48242" d="M471.885,590.349a.587.587,0,0,1,.65-.671l1.63.083v.3h-1.63c-.269,0-.269.149-.269.289v1.031l1.691.052v.3l-1.691.052v1.031c0,.274.171.269.32.269h1.577v.294l-1.577.088c-.34.021-.7-.066-.7-.65Z" transform="translate(-396.073 -544.661)" fill="#415054"/>
        </g>
      </g>
    </g>
  </g>
</svg>
