<svg xmlns="http://www.w3.org/2000/svg" xmlns:xlink="http://www.w3.org/1999/xlink" width="120" height="120" viewBox="0 0 120 120">
  <defs>
    <clipPath id="clip-Simply_Bensons">
      <rect width="120" height="120"/>
    </clipPath>
  </defs>
  <g id="Simply_Bensons" data-name="Simply Bensons" clip-path="url(#clip-Simply_Bensons)">
    <g id="Ellipse_1" data-name="Ellipse 1" fill="#fff" stroke="#dedede" stroke-width="1">
      <circle cx="60" cy="60" r="60" stroke="none"/>
      <circle cx="60" cy="60" r="59.5" fill="none"/>
    </g>
    <g id="Group_13" data-name="Group 13" transform="translate(-427.868 -200.558)">
      <rect id="Rectangle_7" data-name="Rectangle 7" width="73.132" height="38.964" transform="translate(451.868 241.558)" fill="#68aac4"/>
      <rect id="Rectangle_8" data-name="Rectangle 8" width="66.156" height="29.536" transform="translate(455.356 246.272)" fill="none" stroke="#fff" stroke-width="0.574"/>
      <path id="Path_61" data-name="Path 61" d="M476.021,264.155a1.013,1.013,0,0,0-1.12.946h2.191a1,1,0,0,0-1.071-.946m-1.158,2.217v.062c0,.772.71,1.307,1.931,1.307a5.155,5.155,0,0,0,2.092-.461v1.582a7.315,7.315,0,0,1-2.491.449c-2.441,0-3.861-1.307-3.861-3.363a3.2,3.2,0,0,1,3.437-3.288A3.05,3.05,0,0,1,479.135,266c0,.124,0,.249-.012.374Z" fill="#fff"/>
      <path id="Path_62" data-name="Path 62" d="M492.895,264.591a5.2,5.2,0,0,0-2.267-.586c-.685,0-1.034.187-1.034.536,0,.448.81.4,2.018.722,1.133.312,1.681.809,1.681,1.756,0,1.32-1.233,2.292-3.375,2.292a5.857,5.857,0,0,1-2.578-.536v-1.369a8.369,8.369,0,0,0,2.541.435c.722,0,1.1-.186,1.1-.51,0-.449-.423-.5-1.207-.636-1.706-.3-2.529-.747-2.529-1.968,0-1.27,1.059-2.054,3.027-2.054a9.291,9.291,0,0,1,2.628.423" fill="#fff"/>
      <path id="Path_63" data-name="Path 63" d="M496.194,266c0,1.083.461,1.669,1.233,1.669s1.245-.586,1.245-1.669-.46-1.669-1.245-1.669-1.233.585-1.233,1.669m4.832,0a3.611,3.611,0,1,1-3.6-3.313,3.334,3.334,0,0,1,3.6,3.313" fill="#fff"/>
      <path id="Path_64" data-name="Path 64" d="M514.649,264.591a5.2,5.2,0,0,0-2.267-.586c-.685,0-1.034.187-1.034.536,0,.448.81.4,2.018.722,1.133.312,1.681.809,1.681,1.756,0,1.32-1.233,2.292-3.374,2.292a5.855,5.855,0,0,1-2.579-.536v-1.369a8.369,8.369,0,0,0,2.541.435c.722,0,1.1-.186,1.1-.51,0-.449-.424-.5-1.208-.636-1.706-.3-2.529-.747-2.529-1.968,0-1.27,1.06-2.054,3.027-2.054a9.291,9.291,0,0,1,2.628.423" fill="#fff"/>
      <path id="Path_65" data-name="Path 65" d="M467.3,265.512c0,1.345.386,1.993,1.22,1.993.722,0,1.133-.536,1.133-1.557,0-1.171-.411-1.743-1.245-1.743a1.482,1.482,0,0,0-1.071.548c-.025.273-.037.523-.037.759m-.022-5.226s.033,2.525,0,3.172a2.45,2.45,0,0,1,1.868-.785,2.828,2.828,0,0,1,2.828,3.125,3.318,3.318,0,0,1-3.637,3.487,3.283,3.283,0,0,1-2.441-.946c-.672-.684-.834-1.706-.834-3.238,0-.71.011-4.815.011-4.815Z" fill="#fff"/>
      <path id="Path_66" data-name="Path 66" d="M484.149,269.311v-3.064c0-1.208-.034-1.744-.631-1.744a1.7,1.7,0,0,0-1.173.73c-.012.5,0,4.078,0,4.078h-2.239v-6.643h2.235v1.222a2.331,2.331,0,0,1,2.011-1.217,1.861,1.861,0,0,1,1.706.859,4.316,4.316,0,0,1,.3,2.167v3.612" fill="#fff"/>
      <path id="Path_67" data-name="Path 67" d="M505.965,269.313V266.25c0-1.209-.034-1.745-.632-1.745a1.7,1.7,0,0,0-1.173.73c-.012.5,0,4.078,0,4.078h-2.239v-6.642h2.235v1.222a2.33,2.33,0,0,1,2.011-1.217,1.863,1.863,0,0,1,1.707.858,4.33,4.33,0,0,1,.3,2.168v3.611" fill="#fff"/>
      <path id="Path_68" data-name="Path 68" d="M493.62,253.408h-.36l-2.277,5.351-2.136-5.351h-.338l2.288,5.765-1.024,2.333h.349m-2.572-2.322V251.12h-.3v8.064Zm-1.94-2.888a2.736,2.736,0,1,1-2.768-2.746,2.672,2.672,0,0,1,2.768,2.746m.305,0a2.969,2.969,0,0,0-3.04-3.029,2.891,2.891,0,0,0-2.681,1.58h-.022v-1.439h-.3v8.1h.3v-3.793h.022a2.867,2.867,0,0,0,2.681,1.613,2.97,2.97,0,0,0,3.04-3.03m-7.716,2.888v-3.237a2.88,2.88,0,0,0-.664-2.1,2.15,2.15,0,0,0-1.581-.577,2.265,2.265,0,0,0-1.678.708,1.843,1.843,0,0,0-.4.676h-.022a1.948,1.948,0,0,0-.381-.676,2.209,2.209,0,0,0-1.7-.708,2.111,2.111,0,0,0-1.918,1.166h-.021v-1.025h-.306v5.776h.306v-3.291a2.509,2.509,0,0,1,.534-1.711,1.806,1.806,0,0,1,1.373-.632,1.933,1.933,0,0,1,1.558.686,2.542,2.542,0,0,1,.414,1.711v3.237h.306v-3.237a2.345,2.345,0,0,1,.446-1.732,1.907,1.907,0,0,1,1.493-.665,1.8,1.8,0,0,1,1.352.49,2.624,2.624,0,0,1,.588,1.907v3.237Zm-10.375,0v-5.776h-.3v5.776Zm0-7.073v-.991h-.3v.991Zm-1.634,4.959a2.219,2.219,0,0,0-2.005-2.158c-1.112-.294-2.18-.6-2.169-1.874a1.742,1.742,0,0,1,1.842-1.755,1.707,1.707,0,0,1,1.776,1.58h.327a2.018,2.018,0,0,0-2.082-1.874,2.057,2.057,0,0,0-2.19,2.07v.033c.022,1.515,1.406,1.842,2.114,2.027.774.2,2.06.512,2.06,2a2.014,2.014,0,0,1-4.022.032h-.327a2.342,2.342,0,0,0,4.676-.076" fill="#fff"/>
      <path id="Path_69" data-name="Path 69" d="M467.824,259.184v-5.776h-.3v5.776Zm0-7.073v-.991h-.3v.991Zm-1.634,4.959a2.219,2.219,0,0,0-2.005-2.158c-1.112-.294-2.18-.6-2.169-1.874a1.742,1.742,0,0,1,1.842-1.755,1.707,1.707,0,0,1,1.776,1.58h.327a2.018,2.018,0,0,0-2.082-1.874,2.057,2.057,0,0,0-2.19,2.07v.033c.022,1.515,1.406,1.842,2.114,2.027.774.2,2.06.512,2.06,2a2.014,2.014,0,0,1-4.022.032h-.327a2.342,2.342,0,0,0,4.676-.076Z" fill="none" stroke="#fff" stroke-width="0.191"/>
      <path id="Path_70" data-name="Path 70" d="M478.2,259.184v-3.237a2.88,2.88,0,0,0-.664-2.1,2.15,2.15,0,0,0-1.581-.577,2.265,2.265,0,0,0-1.678.708,1.843,1.843,0,0,0-.4.676h-.022a1.948,1.948,0,0,0-.381-.676,2.209,2.209,0,0,0-1.7-.708,2.111,2.111,0,0,0-1.918,1.166h-.021v-1.025h-.306v5.776h.306v-3.291a2.509,2.509,0,0,1,.534-1.711,1.806,1.806,0,0,1,1.373-.632,1.933,1.933,0,0,1,1.558.686,2.542,2.542,0,0,1,.414,1.711v3.237h.306v-3.237a2.345,2.345,0,0,1,.446-1.732,1.907,1.907,0,0,1,1.493-.665,1.8,1.8,0,0,1,1.352.49,2.624,2.624,0,0,1,.588,1.907v3.237Z" fill="none" stroke="#fff" stroke-width="0.191"/>
      <path id="Path_71" data-name="Path 71" d="M485.915,256.3a2.969,2.969,0,0,0-3.04-3.03,2.892,2.892,0,0,0-2.681,1.581h-.022v-1.439h-.3v8.1h.3v-3.793h.022a2.867,2.867,0,0,0,2.681,1.613A2.97,2.97,0,0,0,485.915,256.3Z" fill="none" stroke="#fff" stroke-width="0.191"/>
      <path id="Path_72" data-name="Path 72" d="M487.55,259.184V251.12h-.3v8.064Zm-1.94-2.888a2.736,2.736,0,1,1-2.768-2.746A2.672,2.672,0,0,1,485.61,256.3Z" fill="none" stroke="#fff" stroke-width="0.191"/>
      <path id="Path_73" data-name="Path 73" d="M493.62,253.408h-.36l-2.278,5.351-2.136-5.351h-.338l2.289,5.765-1.024,2.332h.349Z" fill="none" stroke="#fff" stroke-width="0.191"/>
    </g>
  </g>
</svg>
